<?xml version="1.0" standalone="no"?>
  <!DOCTYPE svg PUBLIC "-//W3C//DTD SVG 1.1//EN" "http://www.w3.org/Graphics/SVG/1.1/DTD/svg11.dtd" >
  <svg>
  <metadata>
  Created by font-carrier
  </metadata>
  <defs>
  <font id="QuiteChocolatey" horiz-adv-x="2271" vert-adv-y="2271" >
    <font-face
      
      font-family="Quite Chocolatey"
      
      font-weight="400"
      
      font-stretch="normal"
      
      units-per-em="2048"
      
      ascent="1716"
      
      descent="-418"
      
    />
      <missing-glyph />

      

      
      <glyph glyph-name="uni21" unicode="&#x21;" d="M313 328L264 1364Q264 1410 285 1433Q306 1456 347 1456Q389 1456 409.50 1433Q430 1410 430 1364L350 328L313 328M223 167L305 251Q320 265 334 265Q347 265 365 249L445 163Q457 147 457 134Q457 119 443 103L363 15Q343-5 334-5Q318-5 305 9L217 110Q207 123 207 136Q207 151 223 167Z"  horiz-adv-x="672" vert-adv-y="2048"  />

      
      <glyph glyph-name="uni22" unicode="&#x22;" d="M197 1108L167 1108L105 1467Q101 1490 101 1500Q101 1537 121.50 1557Q142 1577 181 1577Q220 1577 241.50 1557.50Q263 1538 263 1501Q263 1493 259 1467L197 1108M509 1108L479 1108L417 1467Q413 1490 413 1500Q413 1537 433.50 1557Q454 1577 493 1577Q532 1577 553.50 1557.50Q575 1538 575 1501Q575 1493 571 1467L509 1108Z"  horiz-adv-x="672" vert-adv-y="2048"  />

      
      <glyph glyph-name="uni23" unicode="&#x23;" d="M596 859L511 569L753 569L839 859L596 859M673 1434L766 1434L625 957L867 957L1009 1434L1101 1434L960 957L1219 957L1190 860L931 860L848 570L1127 570L1097 472L817 472L677 0L585 0L724 472L484 472L342 0L250 0L390 472L117 472L147 570L418 570L504 860L209 860L238 957L533 957L673 1434Z"  horiz-adv-x="1336" vert-adv-y="2048"  />

      
      <glyph glyph-name="uni24" unicode="&#x24;" d="M577 1552L577 1450Q645 1442 718 1415Q728 1409 737 1409Q762 1409 778 1454L828 1454L931 1172L882 1172Q822 1306 714 1351Q640 1381 577 1390L577 850Q818 757 899.50 667Q981 577 981 403Q981 206 861.50 103Q742 0 577-17L577-256L504-256L504-19Q316-16 238 19Q228 25 219 25Q194 25 178-20L128-20L128 311L177 311Q227 128 329.50 85Q432 42 504 42L504 677Q290 744 205 830Q113 921 113 1079Q113 1245 238 1350Q343 1438 504 1452L504 1552L577 1552M577 655L577 45Q702 62 788.50 141Q875 220 875 360Q875 476 806 543Q744 602 577 655M504 873L504 1393Q385 1388 305 1321Q219 1248 219 1139Q219 1041 274 986Q326 932 504 873Z"  horiz-adv-x="1014" vert-adv-y="2048"  />

      
      <glyph glyph-name="uni25" unicode="&#x25;" d="M449 1459Q547 1459 639.50 1410Q732 1361 784 1270.50Q836 1180 836 1080Q836 981 785.50 891.50Q735 802 642.50 751.50Q550 701 449 701Q349 701 256.50 751.50Q164 802 113 891.50Q62 981 62 1080Q62 1180 114 1270.50Q166 1361 258.50 1410Q351 1459 449 1459M206 1066Q219 974 261.50 892.50Q304 811 368 768Q425 728 482 728Q489 728 495 729Q558 732 610 782Q662 832 683 918Q696 972 696 1029Q696 1061 692 1094Q680 1187 636 1269.50Q592 1352 529 1394Q471 1432 414 1432L403 1432Q342 1429 290 1380Q238 1331 217 1245Q202 1187 202 1128Q202 1097 206 1066M297-29L1237 1432L1321 1432L383-29L297-29M1161 738Q1258 738 1351 688.50Q1444 639 1496 548.50Q1548 458 1548 359Q1548 259 1497.50 169.50Q1447 80 1354.50 30Q1262-20 1161-20Q1060-20 968 30Q876 80 825 169.50Q774 259 774 359Q774 458 826 548.50Q878 639 970.50 688.50Q1063 738 1161 738M918 344Q931 252 973.50 170.50Q1016 89 1080 46Q1139 7 1196 7L1207 7Q1270 10 1322 60Q1374 110 1395 196Q1408 250 1408 307Q1408 339 1404 372Q1392 465 1348 547.50Q1304 630 1241 672Q1183 710 1126 710L1115 710Q1054 707 1002 658Q950 609 929 523Q914 465 914 406Q914 375 918 344Z"  horiz-adv-x="1610" vert-adv-y="2048"  />

      
      <glyph glyph-name="uni26" unicode="&#x26;" d="M1051 196L497 879Q379 879 317.50 793Q256 707 256 589Q256 498 291.50 407.50Q327 317 393 243Q465 160 558 116Q651 72 752 72Q840 72 921 105.50Q1002 139 1051 196M1394 0Q1338 0 1255 25Q1172 50 1088 157Q1021 83 913 33.50Q805-16 672-16Q443-16 297.50 134.50Q152 285 152 520Q152 681 228 786.50Q304 892 453 938Q411 999 390.50 1054Q370 1109 370 1165Q370 1270 447 1362Q524 1454 629 1454Q697 1454 771 1415Q780 1409 789 1409Q812 1409 827 1454L873 1454L969 1173L923 1173Q868 1306 768 1351Q683 1388 627 1388Q562 1388 521 1342.50Q480 1297 480 1225Q480 1094 582 958L1113 288Q1211 434 1234 532Q1251 610 1251 662Q1251 759 1189 759L1099 759L1099 809L1542 809L1542 759L1452 759Q1357 759 1307 532Q1276 400 1152 240Q1261 104 1400 104L1416 104Q1559 121 1608 232L1657 231L1554 0L1394 0Z"  horiz-adv-x="1683" vert-adv-y="2048"  />

      
      <glyph glyph-name="uni27" unicode="&#x27;" d="M197 1108L167 1108L105 1467Q101 1490 101 1500Q101 1537 121.50 1557Q142 1577 181 1577Q220 1577 241.50 1557.50Q263 1538 263 1501Q263 1493 259 1467L197 1108Z"  horiz-adv-x="346" vert-adv-y="2048"  />

      
      <glyph glyph-name="uni28" unicode="&#x28;" d="M252 601Q254 878 351.50 1131Q449 1384 620 1573L700 1573Q528 1331 470 1135Q413 942 413 612L413 590Q413 260 470 68Q528-128 700-370L620-370Q449-181 351.50 71.50Q254 324 252 601Z"  horiz-adv-x="758" vert-adv-y="2048"  />

      
      <glyph glyph-name="uni29" unicode="&#x29;" d="M138-370L58-370Q230-128 288 68Q345 260 345 590L345 612Q345 942 288 1135Q230 1331 58 1573L138 1573Q309 1384 406.50 1131Q504 878 506 601Q504 324 406.50 71.50Q309-181 138-370Z"  horiz-adv-x="758" vert-adv-y="2048"  />

      
      <glyph glyph-name="uni2a" unicode="&#x2a;" d="M498 1294Q494 1365 461 1424Q424 1490 424 1508Q424 1540 447.50 1559.50Q471 1579 510 1579Q547 1579 571.50 1561Q596 1543 596 1514Q596 1493 560 1425Q527 1364 523 1295Q589 1320 636 1370Q687 1425 705 1431Q716 1434 726 1434Q744 1434 761 1424Q787 1407 799 1371Q805 1352 805 1335Q805 1320 801 1307Q791 1277 763 1269Q757 1267 744 1267Q719 1267 668 1276Q640 1281 613 1281Q572 1281 532 1270Q576 1215 637 1187Q705 1155 716 1140Q729 1122 729 1102Q729 1093 727 1085Q719 1055 688 1032Q659 1010 629 1010Q628 1010 628 1011Q597 1011 580 1034Q568 1051 558 1128Q548 1195 511 1253Q473 1195 465 1129Q456 1054 445 1039Q426 1014 396 1012L391 1012Q363 1012 334 1033Q304 1054 295 1084Q291 1094 291 1104Q291 1121 302 1136Q315 1153 385 1187Q446 1216 490 1269Q449 1280 410 1280Q383 1280 357 1275Q303 1264 279 1264Q270 1264 265 1266Q235 1275 224 1304Q218 1317 218 1333Q218 1350 224 1369Q235 1404 260 1422Q277 1434 294 1434Q303 1434 312 1431Q332 1425 386 1369Q433 1320 498 1294Z"  horiz-adv-x="1024" vert-adv-y="2048"  />

      
      <glyph glyph-name="uni2b" unicode="&#x2b;" d="M437 647L87 647L87 787L437 787L437 1156L438 1157L577 1157L577 787L926 787L927 786L927 647L577 647L577 277L437 277L437 647Z"  horiz-adv-x="1014" vert-adv-y="2048"  />

      
      <glyph glyph-name="uni2c" unicode="&#x2c;" d="M238 258Q282 258 326.50 192.50Q371 127 371 41Q371-68 300-185.50Q229-303 161-303L161-260Q234-217 248-70Q248 49 119 91L119 133L238 258Z"  horiz-adv-x="557" vert-adv-y="2048"  />

      
      <glyph glyph-name="uni2d" unicode="&#x2d;" d="M156 409Q116 409 116 437L116 520Q116 549 157 549L513 549Q554 549 554 520L554 437Q554 409 514 409L156 409Z"  horiz-adv-x="670" vert-adv-y="2048"  />

      
      <glyph glyph-name="uniad" unicode="&#xad;" d="M156 409Q116 409 116 437L116 520Q116 549 157 549L513 549Q554 549 554 520L554 437Q554 409 514 409L156 409Z"  horiz-adv-x="670" vert-adv-y="2048"  />

      
      <glyph glyph-name="uni2e" unicode="&#x2e;" d="M145 167L227 251Q242 265 256 265Q269 265 287 249L367 163Q379 147 379 134Q379 119 365 103L285 15Q265-5 256-5Q240-5 227 9L139 110Q129 123 129 136Q129 151 145 167Z"  horiz-adv-x="557" vert-adv-y="2048"  />

      
      <glyph glyph-name="uni2f" unicode="&#x2f;" d="M93-50L13-50L554 1434L634 1434L93-50Z"  horiz-adv-x="569" vert-adv-y="2048"  />

      
      <glyph glyph-name="uni30" unicode="&#x30;" d="M507 1459Q615 1459 718 1363Q821 1267 879 1089Q937 911 937 717Q937 523 880.50 347Q824 171 721.50 73Q619-25 507-25Q395-25 292.50 73Q190 171 133.50 347Q77 523 77 717Q77 911 134.50 1089Q192 1267 295 1363Q398 1459 507 1459M237 689Q251 509 298.50 349Q346 189 417 105Q482 27 546 27Q552 27 558 28Q628 35 685.50 132.50Q743 230 767 398Q782 505 782 618Q782 680 777 744Q763 925 714.50 1087Q666 1249 595 1331Q530 1407 467 1407Q461 1407 456 1406Q388 1399 330 1303.50Q272 1208 248 1039Q232 929 232 814Q232 752 237 689Z"  horiz-adv-x="1014" vert-adv-y="2048"  />

      
      <glyph glyph-name="uni31" unicode="&#x31;" d="M234 0L234 50L330 50Q433 50 433 285L433 1079Q433 1208 316 1208L218 1208L218 1258Q510 1321 545 1434L595 1434L595 285Q595 50 698 50L794 50L794 0L234 0Z"  horiz-adv-x="1014" vert-adv-y="2048"  />

      
      <glyph glyph-name="uni32" unicode="&#x32;" d="M722 1036Q722 1184 636 1281Q550 1378 450 1378Q280 1378 175 1247L153 1247L153 1296Q192 1346 268 1400Q344 1454 453 1454Q636 1454 759.50 1333Q883 1212 883 1036Q883 774 256 120L678 120Q808 120 887 232L936 232L833 0L114 0L115 50Q722 725 722 1036Z"  horiz-adv-x="1014" vert-adv-y="2048"  />

      
      <glyph glyph-name="uni33" unicode="&#x33;" d="M435 22Q586 22 653 138.50Q720 255 720 419Q720 523 675.50 624.50Q631 726 499 773L499 792Q580 837 643 912.50Q706 988 706 1122Q706 1232 651 1311.50Q596 1391 485 1404Q417 1404 361.50 1359Q306 1314 306 1248L264 1248L264 1407Q264 1427 337.50 1440.50Q411 1454 493 1454Q648 1454 750 1370Q852 1286 852 1121Q852 1034 791 955Q730 876 598 816Q691 802 793 681.50Q895 561 895 403Q895 240 751 109Q607-22 426-22Q274-22 178.50 17Q83 56 83 105L83 205L132 205Q132 122 218 72Q304 22 435 22Z"  horiz-adv-x="1014" vert-adv-y="2048"  />

      
      <glyph glyph-name="uni34" unicode="&#x34;" d="M600 438L600 1124L176 438L600 438M737 338L737 167Q737 50 809 50L885 50L885 0L443 0L443 50L519 50Q600 50 600 170L600 338L43 338L43 373L703 1434L737 1434L737 438L756 438Q889 438 949 570L998 570L895 338L737 338Z"  horiz-adv-x="1014" vert-adv-y="2048"  />

      
      <glyph glyph-name="uni35" unicode="&#x35;" d="M229 852L373 1434L769 1434Q872 1434 881 1486L931 1486L868 1314L439 1314L335 899Q561 899 723 774.50Q885 650 885 474Q885 240 741.50 109Q598-22 417-22Q265-22 169 17Q77 54 77 99L77 205L123 205Q123 117 209 69.50Q295 22 426 22Q577 22 643.50 138.50Q710 255 710 486Q710 645 600 751Q490 857 315 857Q275 857 229 852Z"  horiz-adv-x="1014" vert-adv-y="2048"  />

      
      <glyph glyph-name="uni36" unicode="&#x36;" d="M558 11Q659 11 721 109.50Q783 208 783 357Q783 560 683 690.50Q583 821 467 821Q376 821 304 719.50Q232 618 232 469Q232 316 327.50 163.50Q423 11 558 11M801 1459L801 1411Q624 1399 474.50 1231.50Q325 1064 241 764Q337 857 507 857Q615 857 718 800Q821 743 879 637.50Q937 532 937 416Q937 300 880.50 195.50Q824 91 736.50 33Q649-25 567-25Q324-25 200.50 137.50Q77 300 77 510Q77 830 286 1144.50Q495 1459 801 1459Z"  horiz-adv-x="1014" vert-adv-y="2048"  />

      
      <glyph glyph-name="uni37" unicode="&#x37;" d="M737 1314L338 1314Q205 1314 146 1202L96 1202L199 1434L918 1434L917 1384Q547 518 547 179Q547 50 614 50L731 50L731 0L320 0L320 50L387 50Q459 50 459 181Q478 477 737 1314Z"  horiz-adv-x="1014" vert-adv-y="2048"  />

      
      <glyph glyph-name="uni38" unicode="&#x38;" d="M552 830Q673 855 708 954Q735 1029 735 1094Q735 1114 732 1133Q720 1214 679.50 1287Q639 1360 580 1397Q525 1430 474 1430L465 1430Q408 1427 359.50 1384Q311 1341 291 1265Q278 1216 278 1165Q278 1137 282 1108Q294 1028 333.50 956Q373 884 552 830M472 785Q358 764 291 628Q235 513 235 422Q235 404 237 387Q251 283 298.50 190.50Q346 98 417 50Q481 6 545 6L558 6Q628 10 685.50 66Q743 122 767 219Q782 281 782 346Q782 382 777 419Q766 531 703.50 631.50Q641 732 472 785M636 811Q678 797 718 776Q821 720 879 617.50Q937 515 937 403Q937 291 880.50 189.50Q824 88 721.50 31.50Q619-25 507-25Q395-25 292.50 31.50Q190 88 133.50 189.50Q77 291 77 403Q77 515 134.50 617.50Q192 720 295 776Q336 797 377 811Q353 820 329 832Q243 876 196 955Q149 1034 149 1121Q149 1208 197 1288Q245 1368 330.50 1411Q416 1454 507 1454Q597 1454 683 1411Q769 1368 817 1288Q865 1208 865 1121Q865 1034 818 955Q771 876 686 832Q661 819 636 811Z"  horiz-adv-x="1014" vert-adv-y="2048"  />

      
      <glyph glyph-name="uni39" unicode="&#x39;" d="M456 1423Q355 1423 293.50 1324.50Q232 1226 232 1077Q232 874 332 743.50Q432 613 547 613Q638 613 710.50 714.50Q783 816 783 965Q783 1118 687 1270.50Q591 1423 456 1423M213-25L213 23Q390 35 539.50 202.50Q689 370 773 670Q678 577 507 577Q399 577 296 634Q193 691 135 796.50Q77 902 77 1018Q77 1134 133.50 1238.50Q190 1343 277.50 1401Q365 1459 447 1459Q690 1459 813.50 1296.50Q937 1134 937 924Q937 604 728 289.50Q519-25 213-25Z"  horiz-adv-x="1014" vert-adv-y="2048"  />

      
      <glyph glyph-name="uni3a" unicode="&#x3a;" d="M145 167L227 251Q242 265 256 265Q269 265 287 249L367 163Q379 147 379 134Q379 119 365 103L285 15Q265-5 256-5Q240-5 227 9L139 110Q129 123 129 136Q129 151 145 167M145 860L227 944Q242 958 256 958Q269 958 287 942L367 856Q379 840 379 827Q379 812 365 796L285 708Q265 688 256 688Q240 688 227 702L139 803Q129 816 129 829Q129 844 145 860Z"  horiz-adv-x="557" vert-adv-y="2048"  />

      
      <glyph glyph-name="uni3b" unicode="&#x3b;" d="M145 859L227 943Q242 957 256 957Q269 957 287 941L367 855Q379 839 379 826Q379 811 365 795L285 707Q265 687 256 687Q240 687 227 701L139 802Q129 815 129 828Q129 843 145 859M238 258Q282 258 326.50 192.50Q371 127 371 41Q371-68 300-185.50Q229-303 161-303L161-260Q234-217 248-70Q248 49 119 91L119 133L238 258Z"  horiz-adv-x="557" vert-adv-y="2048"  />

      
      <glyph glyph-name="uni037E" unicode="&#x037E;" d="M145 859L227 943Q242 957 256 957Q269 957 287 941L367 855Q379 839 379 826Q379 811 365 795L285 707Q265 687 256 687Q240 687 227 701L139 802Q129 815 129 828Q129 843 145 859M238 258Q282 258 326.50 192.50Q371 127 371 41Q371-68 300-185.50Q229-303 161-303L161-260Q234-217 248-70Q248 49 119 91L119 133L238 258Z"  horiz-adv-x="557" vert-adv-y="2048"  />

      
      <glyph glyph-name="uni3c" unicode="&#x3c;" d="M927 1074L302 715L927 360L927 193L87 674L87 757L927 1241L927 1074Z"  horiz-adv-x="1014" vert-adv-y="2048"  />

      
      <glyph glyph-name="uni3d" unicode="&#x3d;" d="M87 631L927 631L927 491L87 491L87 631M87 943L927 943L927 803L87 803L87 943Z"  horiz-adv-x="1014" vert-adv-y="2048"  />

      
      <glyph glyph-name="uni3e" unicode="&#x3e;" d="M87 1241L927 757L927 674L87 193L87 360L712 715L87 1074L87 1241Z"  horiz-adv-x="1014" vert-adv-y="2048"  />

      
      <glyph glyph-name="uni3f" unicode="&#x3f;" d="M132 1330Q260 1434 374 1434Q506 1434 586 1366Q666 1298 666 1184Q666 1115 633.50 1044Q601 973 509 858Q419 745 367.50 670.50Q316 596 316 528Q316 465 351 339L304 339Q254 477 254 550Q254 659 370.50 862Q487 1065 487 1171Q487 1253 440 1300Q393 1347 310 1347Q226 1347 132 1266L132 1330M223 167L305 251Q320 265 334 265Q347 265 365 249L445 163Q457 147 457 134Q457 119 443 103L363 15Q343-5 334-5Q318-5 305 9L217 110Q207 123 207 136Q207 151 223 167Z"  horiz-adv-x="748" vert-adv-y="2048"  />

      
      <glyph glyph-name="uni40" unicode="&#x40;" d="M972 622Q889 612 821 542Q753 472 753 343Q753 236 817 149Q881 62 1000 62Q1097 67 1126 229L1126 705Q1072 642 972 622M1360 29Q1297 30 1259.50 47Q1222 64 1198 101Q1169 64 1116 36.50Q1063 9 983 9Q839 9 726.50 109.50Q614 210 614 343Q615 430 667 509.50Q719 589 799.50 624.50Q880 660 973 674Q1040 690 1083 716.50Q1126 743 1126 791Q1124 860 1085 916Q1046 972 956 972Q884 972 834.50 913Q785 854 784 788L739 788L739 947Q739 967 811 987Q884 1007 989 1007Q1098 1005 1182.50 942.50Q1267 880 1267 785L1267 196Q1267 79 1361 79Q1546 114 1628 270.50Q1710 427 1710 653Q1690 988 1478 1193Q1281 1381 998 1381Q793 1381 605.50 1243.50Q418 1106 336 888Q269 710 269 527Q269 214 398.50 15.50Q528-183 703.50-275Q879-367 1022-367Q1296-367 1597-159L1597-234Q1334-418 1026-418Q786-418 565-295.50Q344-173 222 46.50Q100 266 100 508Q100 750 224 972.50Q348 1195 569.50 1314.50Q791 1434 1026 1434Q1388 1434 1635 1204Q1882 974 1882 638Q1882 368 1706 199Q1531 31 1360 29Z"  horiz-adv-x="2019" vert-adv-y="2048"  />

      
      <glyph glyph-name="uni41" unicode="&#x41;" d="M760 1244L760 1238Q755 1238 745 1230Q739 1230 731 1221L728 1221L728 1227Q719 1218 714 1218L717 1212Q654 1167 646 1167L649 1161Q648 1155 635 1150L635 1153L637 1158L632 1158L626 1156Q630 1144 635 1144L637 1144Q663 1161 669 1161L669 1158Q650 1130 626 1130Q627 1124 632 1124Q637 1124 660 1136L663 1130L618 1096L620 1090Q620 1087 598 1067L600 1067L612 1070Q617 1067 623 1067Q626 1072 626 1079L635 1079L635 1076L629 1067L629 1065L640 1065L640 1059Q620 1055 461 934Q339 827 257 729Q143 589 143 459L146 448Q146 445 143 445Q156 360 171 360Q213 360 328 479Q387 569 387 596L387 701L404 721Q401 740 401 752L407 755Q410 755 410 752L416 755L427 752L441 760L447 760Q481 739 481 735Q516 712 521 704L535 706Q546 706 552 664L549 652Q549 635 546 559Q558 471 583 397Q578 394 575 394Q579 382 589 382L589 374Q583 374 583 371Q590 351 600 331L595 328Q584 351 581 351L578 351Q578 345 606 291L606 289Q606 269 561 269Q561 263 541 263Q504 271 484 300Q468 318 441 382Q317 263 262 263L228 263Q199 263 160 289Q51 329 23 388Q4 440 4 482Q6 482 6 485Q2 485-5 505Q1 617 23 630L32 630Q40 646 40 652L35 650Q31 650 26 658Q35 658 52 704Q56 704 69 726L75 724Q80 724 146 817L146 820Q125 795 117 795L114 800Q225 941 362 1042Q403 1075 450 1104Q453 1099 453 1096L447 1085L473 1102L478 1102L478 1096L481 1096L481 1102Q478 1102 478 1104L532 1141Q558 1161 598 1175L598 1178L595 1178Q576 1170 572 1170L572 1181Q589 1181 618 1207L623 1207L623 1198L620 1193L623 1193Q636 1201 643 1201L649 1198Q696 1221 706 1221Q742 1244 760 1244M657 1218L657 1215Q657 1211 635 1201L626 1201L626 1210Q633 1210 657 1218M635 1190L637 1190Q643 1190 643 1195L640 1195Q635 1195 635 1190M612 1193L609 1187L609 1184L612 1184Q612 1190 618 1190L618 1193L612 1193M544 1164L552 1164L552 1158L544 1158L544 1164M529 1156Q535 1155 535 1150Q508 1132 492 1116Q488 1116 461 1099L458 1099L458 1104Q480 1121 487 1121Q487 1131 529 1156M609 1133L606 1133L598 1139L598 1127Q592 1124 589 1124L589 1121L595 1121Q625 1139 629 1139L629 1144Q625 1144 609 1133M515 1073L518 1073Q524 1073 524 1079L524 1082Q520 1082 515 1073M487 1059L487 1056Q490 1056 495 1053L495 1059L487 1059M464 1050L464 1048L470 1048L470 1042L464 1042L464 1039L467 1039Q472 1042 478 1042Q478 1046 467 1050L464 1050M373 1033Q373 1025 362 1025L362 1022L367 1022L376 1033L373 1033M450 1031L447 1025L447 1022L450 1022Q450 1028 456 1028L456 1031L450 1031M464 977Q465 971 470 971Q474 982 478 982L481 982Q488 977 492 977Q505 982 507 988Q501 988 501 994L501 996Q508 996 521 1008L524 1008L524 1005L521 999L532 999Q532 1002 535 1008L527 1008L527 1013Q529 1022 549 1025Q549 1031 544 1031Q524 1030 464 977M416 1005L416 1002Q417 996 421 996L424 1002L424 1005L416 1005M510 991L510 988L512 988Q518 988 518 994L518 996L515 996Q510 996 510 991M367 974Q367 971 365 965Q369 965 376 959L382 968L382 971L376 968L367 974M353 948L356 948Q367 952 367 957L362 957Q358 957 353 948M325 931L325 925L333 925L333 931L325 931M313 920L313 911Q319 911 319 917L319 920L313 920M302 911Q302 908 299 903L302 903L308 911L302 911M86 752L89 746L83 743L80 743L80 746Q81 752 86 752M46 678L46 675Q50 675 55 684L52 684Q46 683 46 678Z"  horiz-adv-x="652" vert-adv-y="2048"  />

      
      <glyph glyph-name="uni42" unicode="&#x42;" d="M396 1786L406 1786L406 1773Q376 1724 364 1696L361 1696L361 1690L368 1690Q368 1694 396 1715Q403 1714 403 1709L380 1671L384 1665Q380 1648 368 1629L368 1626L371 1626Q371 1628 387 1655L393 1655L393 1642Q383 1636 380 1636L384 1629Q384 1616 374 1604L371 1604L371 1598L377 1598Q377 1607 384 1607L384 1601Q384 1596 374 1591Q368 1594 364 1594L364 1588Q371 1588 371 1585Q354 1534 326 1486L323 1493Q329 1493 329 1499L329 1502L326 1502Q318 1502 313 1480Q320 1479 320 1473L320 1470L317 1470L310 1473L307 1467Q313 1467 313 1457Q310 1438 304 1438L307 1432L301 1422L304 1416Q298 1416 288 1378L282 1378L282 1375Q283 1368 288 1368L298 1375L301 1375L301 1371L294 1362L294 1343L291 1343L275 1346L275 1340L282 1330Q275 1303 275 1295Q278 1295 278 1292Q274 1292 269 1282L275 1279Q227 1136 227 1117Q224 1117 224 1110Q231 1109 231 1104Q224 1103 224 1098Q234 1098 234 1091L227 1088Q231 1082 231 1078L212 1012L215 1005Q205 978 205 970L205 967L208 967Q209 983 218 983Q213 919 199 919L196 919L196 910L202 913L205 913L205 910L192 897L192 894L199 897Q205 894 208 894Q225 926 234 935Q247 935 272 970Q340 1002 390 1002Q486 1002 581 910Q670 792 670 763Q696 714 696 652Q696 536 622 454Q559 339 444 282Q356 244 339 244L336 250Q395 266 406 279L403 279Q396 279 348 260Q344 260 298 263L291 260Q260 288 240 292Q240 297 196 340L196 352Q200 357 278 381Q388 433 457 515Q562 649 562 712Q568 744 568 776Q568 808 536 827Q504 840 457 843Q362 826 304 776Q219 681 192 562Q184 562 180 467Q180 422 189 368Q189 345 164 336L122 371Q87 403 84 403L55 419Q55 423 43 470Q43 473 46 473L36 518Q36 521 40 521Q30 575 30 620Q34 744 43 744L40 750L43 757Q43 760 40 766Q44 805 49 805L46 811L46 830Q46 835 55 840Q52 846 52 849Q52 860 65 897Q65 910 62 932Q71 997 84 1037L91 1037L87 1050L97 1066Q97 1072 91 1072Q103 1090 106 1110Q116 1110 116 1117Q110 1117 110 1123L110 1129Q110 1133 113 1133L110 1139L154 1298Q170 1314 170 1340Q174 1344 208 1435L218 1445L224 1442L224 1445Q224 1448 221 1448Q225 1493 240 1493L237 1499Q246 1537 266 1537L266 1540L259 1550Q272 1563 278 1563L275 1569L275 1572Q276 1579 282 1579L278 1585Q298 1620 304 1620L329 1668Q341 1678 348 1706L380 1750Q374 1750 374 1757Q389 1757 396 1786M352 1601L352 1598L358 1598Q358 1600 368 1623Q364 1623 352 1601M323 1540L323 1537L329 1537L329 1547Q323 1546 323 1540M310 1512Q310 1506 304 1496L304 1493L307 1493Q307 1500 317 1512L310 1512M294 1470L294 1467L298 1467Q298 1472 304 1480L304 1486Q297 1486 294 1470M298 1454L298 1445Q302 1445 307 1454L307 1457Q301 1454 298 1454M269 1333L269 1321L272 1321L272 1333L269 1333M409 285L409 282L419 282Q440 292 447 301L441 301Q429 293 409 285Z"  horiz-adv-x="729" vert-adv-y="2048"  />

      
      <glyph glyph-name="uni43" unicode="&#x43;" d="M712 1105L712 1099L701 1096L701 1094Q717 1094 717 1088Q659 1061 657 1055L657 1053L663 1053L663 1047L657 1047L657 1044L663 1044Q667 1064 684 1064Q684 1066 704 1077Q704 1072 709 1072Q710 1077 715 1077Q720 1076 720 1072Q694 1062 679 1039Q675 1039 652 1020Q636 1020 608 995Q571 979 567 979L567 973L572 973L624 1001Q658 1020 687 1028L690 1028L649 995L652 990L652 987Q645 987 613 968Q610 968 575 951L572 951L583 962L583 965Q570 961 556 948L558 948L572 951Q556 940 556 935L558 935Q563 937 569 937Q569 934 553 924L550 924L550 927L553 932L547 932Q535 924 531 924L534 918L534 916Q529 916 520 907L517 913L493 902L493 899L495 899Q501 902 504 902Q474 874 465 874L465 872L473 872Q477 872 523 899Q523 896 525 896Q527 904 567 918Q567 922 624 948Q624 951 627 951Q627 948 630 948Q630 954 646 957L646 951Q556 913 408 814Q408 804 312 748Q312 739 235 674Q103 560 84 455L84 452Q106 411 145 411L183 411Q186 411 186 409Q308 428 388 472Q388 483 449 504Q466 525 482 535L487 535Q512 523 512 515Q512 502 515 488Q512 488 512 485Q520 485 520 480L515 466Q517 461 517 458Q512 458 509 433L473 395Q464 391 446 365L388 329L391 329Q401 329 465 359L465 356Q439 333 361 299Q275 266 232 266L208 266Q106 266 73 345Q54 366 18 458Q2 527 2 570Q9 623 65 707Q135 787 180 809Q200 835 273 883Q301 903 312 913L314 913L323 907Q340 937 367 946Q367 940 372 940Q372 946 386 948L386 954L372 946L372 948Q432 997 482 1006Q506 1021 506 1025Q504 1025 504 1028Q530 1047 539 1047L539 1042Q527 1042 520 1031L523 1031Q525 1031 561 1053L558 1058L558 1061L561 1061L578 1058Q613 1075 619 1075L621 1069L613 1069L613 1064L616 1064Q629 1072 632 1072L632 1075L630 1080L638 1085L641 1085L649 1080L649 1088L652 1088Q652 1085 654 1080Q664 1083 682 1083L682 1085L676 1085L676 1094Q679 1094 712 1105M665 1096L668 1096L668 1094Q668 1090 660 1085L657 1085L657 1088Q657 1092 665 1096M737 1088L742 1088L742 1083L731 1080L731 1083Q732 1088 737 1088M706 1039L706 1036Q706 1031 701 1031L693 1031Q693 1037 706 1039M627 990Q622 992 619 992L613 984L613 981L627 979L646 998L646 1001L627 990M676 1003Q673 995 660 995Q663 1003 676 1003M591 968L597 968Q601 968 605 976L602 976Q591 972 591 968M663 968L668 968L668 962L652 957L652 962Q656 962 663 968M528 957L525 951Q530 954 536 954L536 957L528 957M462 880L465 880Q478 888 482 888L482 891L479 891Q462 884 462 880M435 858L435 850L438 850Q445 855 465 863L465 866L462 866Q437 858 435 858Z"  horiz-adv-x="567" vert-adv-y="2048"  />

      
      <glyph glyph-name="uni44" unicode="&#x44;" d="M923 1713L930 1713L930 1710Q864 1642 793 1547L797 1547L807 1553L811 1553L811 1550Q779 1529 779 1524Q787 1524 793 1521Q803 1529 828 1570Q839 1570 839 1578Q835 1584 835 1587L842 1584Q842 1590 870 1618L874 1618L874 1613L797 1510L797 1507Q817 1525 881 1613L891 1618L895 1618Q895 1608 881 1595L881 1593Q887 1595 940 1658L947 1661L951 1661Q951 1644 919 1615L919 1610Q949 1641 958 1641L958 1633L968 1638L965 1653L965 1656L968 1656Q975 1653 979 1653Q979 1656 1010 1678L1014 1678L1014 1676Q986 1647 982 1636Q986 1630 986 1627Q968 1614 919 1538Q821 1425 720 1212Q593 896 593 769Q590 769 586 749Q586 746 590 746Q583 721 583 678L583 618Q583 615 579 615L583 609L583 601Q583 546 625 398Q625 395 621 395Q642 341 642 335Q626 315 607 315L600 317Q593 315 558 309L537 312L534 312Q492 266 387 266L373 269L366 266Q254 266 145 369L71 432Q1 509 1 583Q-2 583-6 621Q-6 623-2 623L-6 635Q-6 779 78 872Q102 912 197 978Q275 1004 299 1004L366 1004Q409 998 436 998Q450 1044 457 1044Q467 1044 467 1058L460 1055Q460 1058 457 1058Q482 1146 495 1152L499 1152L499 1144L502 1144Q527 1195 527 1215L537 1221L534 1227L555 1252L551 1258Q551 1261 558 1281L551 1278Q544 1278 544 1284Q550 1295 555 1295L558 1295L558 1287L569 1287Q571 1315 604 1355Q649 1455 709 1518L716 1515L783 1595Q807 1633 856 1678L863 1678L832 1641L839 1638L846 1641L846 1636Q825 1618 793 1567Q899 1690 923 1713M905 1710L905 1707Q895 1698 895 1693L888 1693L888 1696Q888 1699 905 1710M881 1707L888 1707L888 1704Q888 1700 870 1690L867 1690Q881 1701 881 1707M870 1673L874 1673Q874 1669 863 1664L863 1667Q864 1673 870 1673M853 1658L860 1658L860 1656Q860 1650 853 1650L853 1658M996 1644L996 1641Q996 1637 986 1633L986 1636Q986 1640 996 1644M905 1636L909 1636L909 1633Q909 1629 898 1624L898 1630Q899 1636 905 1636M765 1530L765 1527Q770 1527 779 1541L779 1547Q775 1547 765 1530M779 1510L779 1507L786 1507L786 1515Q779 1515 779 1510M695 1493L695 1490Q713 1498 713 1513Q707 1513 695 1493M635 1401L628 1384L635 1384L639 1398L639 1401L635 1401M474 1092L474 1078L478 1078L481 1092L481 1098Q474 1097 474 1092M471 1075Q471 1072 467 1067L474 1067L474 1075L471 1075M162 578Q166 572 166 569L162 569L166 563Q166 552 162 540Q169 516 169 512L166 512Q186 427 218 409Q234 399 292 389Q295 389 295 392L313 389Q378 395 408 409L380 569Q383 575 383 578Q380 583 380 586L383 592Q380 597 380 603Q380 606 383 606L380 621L380 635Q380 641 383 646Q383 649 380 649L387 709Q383 715 383 718Q390 718 390 723Q387 739 387 749Q394 749 394 755Q394 763 390 763Q390 772 404 841L408 841L415 838L415 841L411 846L411 855Q404 855 404 861Q418 865 418 869Q410 869 404 872Q335 853 285 812Q204 746 190 686Q162 618 162 578Z"  horiz-adv-x="684" vert-adv-y="2048"  />

      
      <glyph glyph-name="uni45" unicode="&#x45;" d="M411 1019Q530 1019 619 924Q637 881 647 821Q647 818 644 818L647 798L647 774Q647 721 560 642Q394 541 338 541Q331 544 328 544Q328 538 321 538Q317 538 317 541L300 538L289 538Q284 538 279 547L282 553Q268 570 258 570Q189 632 189 668L196 671L248 671Q340 689 473 780Q532 839 532 855L484 864L442 864Q349 856 199 751Q122 683 102 590Q135 506 376 423Q449 400 564 374L567 368Q560 367 560 363L567 360Q574 360 574 368L591 368L591 363L581 363L581 357L588 357Q626 357 626 342Q626 334 640 334L640 325Q640 319 633 319L616 319Q589 319 529 331L529 325L539 325L539 319L529 319Q520 325 515 325L515 331L522 331L522 334L512 334L501 328L498 328Q472 328 470 337L487 337Q487 342 480 342L470 342Q470 337 456 337L456 334Q466 334 494 319L505 325L508 325L508 322L505 316L508 316Q515 319 519 319L591 296Q605 296 605 291L598 291L557 293L553 293L553 291Q556 291 574 288L574 285Q574 281 557 273Q548 279 543 279L536 276Q509 288 501 288L498 288L529 270Q515 270 515 256L494 256Q466 256 449 268Q331 297 199 360Q110 422 77 469Q36 509 11 662L8 697Q15 764 32 795Q55 838 109 878Q109 893 171 924Q221 953 244 976Q333 1019 411 1019M619 746Q619 741 595 708L598 708Q615 708 626 746L619 746M591 705Q583 680 484 619Q380 567 373 567L373 564L383 564Q537 611 602 702L595 705L591 705M442 337L453 337L453 342L449 342Q442 342 442 337M571 316L581 316L581 311L571 311L571 316M446 299L446 293Q449 293 456 291L459 296Q452 296 446 299M477 273Q485 273 491 270L494 276L487 279L484 279Q477 278 477 273Z"  horiz-adv-x="691" vert-adv-y="2048"  />

      
      <glyph glyph-name="uni46" unicode="&#x46;" d="M935 1714Q938 1714 938 1711L966 1714L996 1714Q1067 1714 1153 1620Q1194 1548 1194 1535Q1188 1534 1188 1530L1191 1519L1183 1505Q1188 1504 1188 1499L1188 1494Q1188 1488 1183 1488L1180 1488Q1175 1488 1175 1497L1169 1497Q1162 1461 1155 1461Q1150 1461 1150 1469L1147 1469Q1142 1469 1139 1447L1136 1447Q1136 1450 1114 1466Q1084 1542 1021 1568Q996 1582 985 1582L979 1579Q977 1579 977 1582Q926 1579 916 1574L911 1576L908 1576L908 1574L913 1574Q906 1560 891 1560L891 1557L897 1557Q911 1565 924 1565L924 1563Q917 1555 872 1538Q788 1471 710 1376Q633 1277 578 1180L578 1177Q662 1161 696 1161Q800 1161 889 1172L894 1169Q975 1177 1012 1188Q1017 1186 1023 1186Q1032 1191 1040 1191L1043 1191L1051 1186L1059 1191Q1060 1186 1065 1186L1067 1186Q1079 1186 1098 1197L1109 1194L1111 1194L1111 1197L1106 1197L1106 1202L1111 1202Q1114 1202 1114 1199L1120 1202Q1125 1202 1125 1194L1128 1194L1133 1197L1131 1202L1131 1205Q1138 1205 1144 1210L1155 1202L1158 1202L1155 1208L1161 1210Q1166 1208 1169 1208Q1178 1213 1186 1213L1188 1213Q1188 1207 1199 1205Q1216 1211 1216 1216L1213 1216Q1204 1210 1199 1210Q1194 1213 1191 1213L1191 1219Q1199 1219 1232 1227Q1238 1227 1252 1221L1254 1221L1254 1224L1249 1224Q1249 1230 1274 1235Q1274 1234 1279 1227Q1289 1230 1307 1230Q1307 1235 1298 1235Q1293 1232 1290 1232L1290 1238Q1294 1238 1301 1243L1307 1241Q1311 1243 1318 1243L1320 1243L1320 1238L1309 1238L1309 1235L1320 1235L1345 1238L1345 1246L1334 1246Q1335 1252 1340 1252L1356 1252L1356 1249Q1356 1246 1353 1246Q1356 1241 1356 1238L1362 1238Q1362 1248 1414 1254L1417 1260L1417 1263L1406 1263Q1407 1268 1411 1268L1414 1268Q1417 1268 1417 1265L1422 1268L1428 1268L1425 1263L1428 1263Q1439 1265 1447 1265L1441 1274L1543 1301Q1544 1296 1549 1296L1552 1296Q1552 1307 1560 1307Q1577 1301 1582 1301L1579 1307Q1580 1312 1585 1312L1593 1312L1593 1310L1587 1301L1593 1301L1615 1321L1618 1321L1631 1318L1629 1323L1629 1326L1642 1329Q1645 1329 1651 1326L1664 1332L1678 1326L1695 1329L1695 1332L1689 1340Q1690 1345 1695 1345L1700 1343L1714 1351L1725 1351Q1725 1345 1711 1345L1711 1343L1714 1337Q1725 1343 1730 1343Q1731 1337 1736 1337L1739 1337L1739 1345L1752 1343L1758 1343L1758 1348L1739 1354L1739 1359L1741 1359L1755 1356L1758 1362Q1786 1358 1791 1356Q1800 1362 1818 1365Q1818 1362 1821 1362Q1821 1366 1829 1370Q1834 1367 1840 1367L1832 1378L1832 1381Q1841 1384 1849 1384L1849 1376Q1857 1376 1857 1387Q1871 1384 1873 1384Q1877 1384 1898 1389Q1903 1387 1906 1387Q2070 1442 2330 1521L2330 1516L2316 1513L2316 1510L2324 1510L2344 1513Q2325 1494 2300 1494L2300 1488L2305 1488L2305 1483L2289 1480Q2289 1486 2283 1486L2275 1486L2275 1483Q2280 1483 2280 1480Q2278 1475 2278 1472Q2280 1472 2280 1469Q2273 1469 2264 1461L2256 1461L2256 1466Q2269 1466 2269 1472L2264 1475Q2264 1469 2258 1469L2256 1469L2256 1475L2261 1475L2261 1477L2258 1477Q2241 1472 2239 1472Q2244 1461 2250 1461L2250 1458L2242 1458L2234 1469L2228 1469L2228 1466L2231 1461L2225 1458Q2220 1458 2220 1464L2225 1464L2225 1469Q2206 1462 2206 1455Q2203 1455 2198 1458Q2148 1445 2148 1439L2148 1436L2143 1436L2146 1442L2135 1442Q2135 1434 2107 1431L2107 1428L2115 1428L2143 1436Q2143 1427 2099 1420L2099 1428L2082 1420Q2082 1422 2080 1422Q2077 1409 2066 1409L2066 1403L2080 1406L2082 1406L2082 1403L2080 1398Q2082 1392 2082 1389Q2080 1389 2080 1387Q2102 1387 2102 1381L2088 1378L2088 1381Q2069 1373 2066 1373L2066 1370Q2074 1370 2074 1365L2060 1365L2063 1370L2055 1370L2060 1362Q2056 1362 2049 1356Q2044 1356 2044 1362L2049 1362L2049 1365L2036 1362L2022 1365L2022 1370L2036 1367Q2030 1374 2030 1381L2022 1381L2008 1378L2008 1376Q2016 1376 2016 1370L2011 1370L2011 1365L2016 1365L2016 1362Q2016 1360 1992 1340Q1992 1334 1997 1334L2008 1334L2016 1340L2019 1340L2019 1334L2014 1334L2014 1329L2019 1329Q2025 1334 2044 1334L2044 1337Q2038 1337 2038 1340L2033 1337L2030 1337Q2026 1337 2022 1345L2027 1348L2030 1348L2027 1343L2038 1343Q2044 1343 2044 1354L2047 1354Q2052 1353 2052 1348Q2047 1347 2047 1343L2047 1340Q2080 1343 2080 1351L2088 1351Q2143 1370 2151 1370L2151 1376L2146 1376Q2134 1367 2124 1367L2121 1367L2121 1370L2126 1370L2124 1376L2135 1376L2132 1381L2132 1384L2140 1378L2148 1384L2148 1378L2162 1381Q2163 1376 2168 1376Q2169 1380 2223 1395Q2228 1392 2231 1392Q2231 1387 2206 1381L2206 1378Q2214 1378 2214 1373L2214 1370L2203 1370L2198 1373Q2198 1371 2176 1351L2173 1351L2173 1362Q2164 1356 2159 1356L2159 1359Q2154 1356 2151 1356L2151 1351L2157 1351L2157 1343L2151 1343L2151 1348L2148 1348Q2148 1336 2135 1332L2132 1332L2132 1337L2135 1343Q2129 1345 2126 1345L2126 1351Q2128 1351 2137 1354Q2143 1351 2146 1351L2146 1354Q2146 1359 2140 1359Q2131 1359 2110 1345L2093 1345L2093 1343Q2096 1337 2096 1334L2093 1334L2082 1343Q2069 1337 2069 1334L2069 1326Q2064 1326 2052 1332Q2023 1321 2019 1321L2019 1318L2022 1312L2003 1299L2003 1304L1992 1304Q1992 1293 1975 1293L1972 1293L1967 1296L1961 1287L1961 1285L2011 1299L2011 1296Q2011 1290 1805 1227L1675 1188Q1675 1186 1673 1186Q1670 1186 1670 1188L1565 1155L1565 1158Q1555 1153 1521 1144L1516 1147Q1464 1122 1120 1048Q825 1001 702 1001L685 1001Q602 1001 503 1040Q491 1032 366 790Q162 402-33-201L-47-198L-58-223L-52-225Q-44-213-44-206Q-38-207-38-212L-38-217Q-38-223-44-223L-41-228Q-63-291-66-291L-69-291L-69-289Q-66-270-60-269Q-63-264-63-261L-66-261Q-79-287-93-302L-96-302L-93-308L-93-311Q-104-333-107-333L-110-327L-102-313L-110-313L-113-324L-118-322Q-109-298-104-294Q-104-300-99-300L-96-294L-96-291L-104-291L-104-289Q-93-289-93-280L-93-275L-104-283L-107-278Q-102-275-99-275L-102-261L-96-258L-99-245Q-85-220-77-220L-77-214L-85-214L-85-212L-77-201L-82-192Q-82-187-74-187L-77-181Q-69-162-66-162L-69-157L-69-151L-63-151L-69-132L-63-129L-58-132L-55-132L-55-129L-60-129L-58-115L-58-104Q-66-104-66-96Q-63-91-63-88L-66-88L-80-113Q-80-110-82-110Q-70-71-66-71Q-63-77-63-80L-58-80Q-57-66-44-66L-44-58L-47-58Q-47-66-52-66L-55-60Q-49-60-49-55Q-52-50-52-44Q-47-44-44-25L-52-30L-58-30L-58-25L-52-16Q-55-16-60-14Q-69-56-85-85L-82-91Q-91-102-96-124L-102-124L-102-121Q-77-37-66-19L-69-14Q-60-8-41 66Q-58 44-63 44L-60 39Q-68 17-77 6L-74 0L-88-19L-91-19L-91-16Q-80 25-71 36Q-77 36-77 41Q-76 47-71 47L-74 52Q-57 102-44 121Q-44 125-33 157L-8 231Q11 267 14 267L17 248Q11 248 11 228Q14 228 14 223Q21 229 61 338L58 338Q40 311 36 311Q36 294 22 286L19 286L19 303Q19 308 28 308L28 322Q28 344 63 393L66 393L66 391Q66 388 63 388L66 382L66 380L61 371L61 369L66 369L66 366Q66 360 61 360Q61 363 58 363L58 360Q61 355 61 352L63 352Q70 352 91 415L77 415Q77 402 72 402L69 402Q63 402 63 407L63 410Q72 424 80 462Q105 503 105 523L107 523L105 537L105 539L124 561L118 570Q118 579 146 611L176 677L173 682L173 693Q185 730 198 735Q253 828 253 850L250 850L250 856L253 856L259 853Q294 906 316 971L322 977L319 982L347 1026L344 1032Q345 1037 349 1037L347 1043Q347 1053 391 1125Q391 1130 410 1164L487 1315Q510 1345 514 1345L512 1351L597 1466Q679 1574 721 1612Q845 1699 889 1703L935 1714M880 1557L878 1552L886 1552Q886 1557 880 1557M856 1543L856 1541L858 1541Q864 1543 867 1543L867 1549Q860 1543 856 1543M2355 1532L2360 1532L2360 1527L2341 1521L2338 1521L2338 1527Q2348 1527 2355 1532M2382 1527L2385 1521Q2382 1521 2382 1519L2377 1521L2355 1508Q2355 1510 2352 1516Q2361 1525 2382 1527M2137 1450L2140 1450L2168 1458Q2168 1464 2162 1464Q2137 1453 2137 1450M2355 1450L2363 1450L2363 1444L2355 1444L2355 1450M2338 1447L2344 1447L2344 1444Q2344 1440 2335 1436L2333 1436L2333 1442Q2338 1442 2338 1447M2275 1444L2275 1439L2261 1436L2258 1436L2258 1442Q2261 1442 2275 1444M2044 1411L2044 1406Q2049 1409 2052 1409L2052 1411L2044 1411M2093 1411L2104 1411Q2104 1407 2096 1403L2088 1403L2088 1406Q2089 1411 2093 1411M2036 1406L2038 1400Q2011 1387 1994 1387Q1997 1392 1997 1395L1989 1395Q1989 1376 1970 1376Q1967 1381 1967 1384Q1948 1381 1948 1376L1953 1376Q1958 1378 1961 1378L1961 1373Q1945 1370 1945 1365L1948 1365Q1954 1365 2033 1392Q2036 1387 2036 1384L2041 1384Q2047 1384 2047 1389L2041 1389L2041 1392Q2041 1399 2063 1400L2063 1406Q2052 1400 2044 1400Q2044 1406 2038 1406L2036 1406M2118 1409L2126 1409Q2126 1403 2121 1403L2118 1403L2118 1409M2135 1409L2137 1409L2143 1406L2151 1406Q2154 1400 2154 1398L2151 1398L2146 1400Q2146 1395 2140 1395L2132 1395Q2126 1395 2126 1400Q2129 1400 2129 1403L2135 1400L2137 1400L2135 1406L2135 1409M2063 1398L2049 1387L2060 1387L2060 1384L2063 1384Q2070 1389 2077 1389L2077 1392L2074 1398L2069 1395L2063 1398M2209 1400L2217 1400Q2217 1395 2212 1395L2209 1395L2209 1400M2102 1395L2104 1395Q2110 1394 2110 1389L2110 1387L2107 1387Q2102 1387 2102 1392L2102 1395M2118 1392L2121 1392Q2121 1384 2126 1384L2126 1381L2121 1381L2124 1376L2118 1376Q2113 1378 2110 1378L2110 1384L2115 1384L2113 1389L2118 1392M2220 1381L2228 1381L2228 1376L2220 1376L2220 1381M1972 1365L1972 1362L1983 1362Q1983 1367 1986 1367L1994 1367Q1994 1370 2005 1370L2005 1376L2003 1376Q1999 1376 1972 1365M2234 1373L2236 1367L2236 1365Q2226 1365 2209 1359L2209 1362Q2209 1367 2234 1373M1931 1365L1931 1359L1934 1359Q1939 1359 1939 1365L1939 1367Q1934 1365 1931 1365M2088 1370L2099 1370L2099 1365L2093 1365Q2088 1365 2088 1370M1912 1362L1912 1356L1920 1356Q1926 1356 1926 1362L1923 1362Q1918 1359 1915 1359Q1915 1362 1912 1362M1945 1359Q1945 1354 1931 1354L1931 1351L1937 1351L1950 1354Q1956 1351 1959 1351L1959 1356L1945 1359M1983 1359L1983 1356L1997 1354L1997 1359L1983 1359M2082 1359L2091 1359Q2091 1354 2085 1354L2082 1354L2082 1359M1884 1348Q1885 1343 1890 1343L1893 1343Q1893 1345 1895 1351L1893 1351Q1887 1348 1884 1348M1920 1345L1928 1345L1928 1351L1926 1351Q1920 1350 1920 1345M1843 1348L1843 1345L1857 1345L1857 1348L1843 1348M1937 1332L1937 1329L1945 1329L1945 1323L1937 1323L1937 1321Q1952 1318 1959 1318L1959 1321L1975 1318L1978 1318L1978 1321L1970 1321L1970 1323L1983 1326L1978 1337Q1994 1343 1994 1348L1992 1348L1937 1332M2168 1351L2173 1351Q2173 1345 2168 1345L2162 1345Q2163 1351 2168 1351M1906 1345L1906 1343L1917 1340Q1917 1345 1909 1345L1906 1345M1934 1343Q1935 1337 1939 1337L1945 1337Q1945 1343 1939 1343L1934 1343M1697 1334L1708 1332L1708 1340L1703 1340Q1697 1339 1697 1334M1829 1334Q1830 1329 1835 1329L1838 1334L1829 1334M1868 1334Q1868 1332 1879 1323Q1884 1326 1887 1326L1887 1329L1868 1334M1964 1337L1978 1334L1975 1329L1970 1332L1967 1332Q1967 1326 1964 1326L1950 1329L1950 1334L1953 1334L1959 1332Q1959 1337 1964 1337M1986 1329Q1989 1329 1989 1326Q1985 1326 1981 1318L1986 1318Q1999 1326 2011 1326L2011 1329L2000 1329Q1995 1326 1992 1326L1992 1334Q1986 1333 1986 1329M1777 1323L1777 1321Q1781 1321 1785 1329L1783 1329Q1777 1328 1777 1323M1890 1310L1890 1307Q1891 1301 1895 1301L1904 1301Q1909 1301 1909 1307L1909 1310L1904 1310L1904 1315Q1915 1315 1915 1321L1920 1318L1923 1318L1923 1323Q1917 1323 1917 1326Q1890 1319 1890 1310M1851 1318L1851 1315L1871 1315Q1876 1315 1876 1321L1871 1323L1865 1323Q1858 1318 1851 1318M2096 1326L2096 1321Q2089 1321 2082 1315L2080 1321Q2089 1326 2096 1326M1882 1318Q1882 1311 1849 1304L1849 1293L1854 1293Q1855 1304 1862 1304L1865 1304L1871 1301Q1871 1307 1876 1307Q1882 1300 1882 1296L1890 1296L1890 1299Q1884 1307 1884 1312Q1887 1312 1887 1315L1882 1318M1612 1315L1612 1312Q1615 1312 1620 1310L1623 1310L1623 1312Q1620 1312 1615 1315L1612 1315M2003 1315L2005 1310Q2011 1312 2014 1312L2014 1315L2003 1315M1827 1310L1827 1307L1829 1307Q1834 1310 1840 1310L1840 1312L1835 1312Q1830 1310 1827 1310M1926 1312L1926 1310L1937 1307Q1937 1312 1928 1312L1926 1312M1766 1310Q1766 1306 1780 1299Q1785 1305 1785 1307L1766 1310M1898 1310L1901 1310L1901 1304L1893 1304Q1893 1310 1898 1310M1829 1301L1829 1296L1840 1296L1840 1301L1829 1301M1909 1301L1909 1296L1917 1296L1917 1299Q1914 1299 1909 1301M1860 1299Q1862 1293 1862 1290L1865 1290Q1871 1290 1871 1296L1860 1299M1807 1287L1813 1287Q1818 1287 1818 1293L1818 1296Q1807 1292 1807 1287M1516 1285L1518 1285Q1536 1290 1543 1290L1543 1293L1535 1293Q1516 1290 1516 1285M1796 1293L1783 1282L1788 1279L1802 1290L1796 1293M1832 1290L1824 1279L1810 1282L1791 1276L1791 1268L1810 1279L1824 1276L1824 1271L1813 1271L1813 1268L1824 1268Q1827 1273 1827 1279Q1834 1279 1843 1274Q1857 1279 1865 1279L1862 1285L1857 1282L1854 1282L1843 1290L1832 1290M1871 1287L1871 1282Q1875 1285 1882 1285L1882 1287L1871 1287M1840 1285L1849 1285Q1849 1279 1843 1279L1840 1279L1840 1285M1747 1271L1761 1271L1761 1276L1752 1276Q1747 1276 1747 1271M1452 1271L1452 1268L1466 1265Q1466 1271 1461 1271L1452 1271M1719 1265L1719 1263L1728 1263Q1728 1268 1739 1268L1739 1271L1733 1271Q1724 1265 1719 1265M1766 1268Q1766 1263 1758 1263L1744 1265Q1744 1262 1752 1257Q1770 1263 1774 1263L1774 1265Q1771 1265 1766 1268M1783 1260L1783 1257L1791 1257Q1800 1263 1807 1263L1807 1265L1799 1265Q1788 1260 1783 1260M1882 1265L1882 1260L1887 1260Q1893 1260 1893 1265L1882 1265M1703 1263L1703 1257L1706 1257Q1711 1260 1714 1260L1714 1263L1703 1263M1392 1263L1400 1263Q1400 1257 1395 1257L1392 1257L1392 1263M1717 1257L1717 1254Q1723 1254 1730 1249L1736 1260Q1725 1257 1717 1257M1868 1260L1868 1254L1871 1254Q1876 1257 1879 1257L1879 1260L1868 1260M1686 1257L1686 1254L1697 1254L1697 1257L1686 1257M1744 1249L1744 1254L1739 1254L1736 1243L1739 1243L1772 1252L1772 1257Q1750 1249 1744 1249M1642 1249L1642 1243Q1648 1243 1653 1241L1653 1246Q1647 1246 1642 1249M1331 1246L1334 1246Q1334 1241 1329 1241L1326 1241Q1327 1246 1331 1246M1664 1235L1664 1230L1667 1230Q1674 1235 1678 1235Q1678 1241 1673 1241L1670 1241Q1664 1240 1664 1235M1645 1235Q1648 1230 1648 1227L1653 1227Q1653 1231 1659 1238L1651 1238L1645 1235M1681 1238Q1681 1231 1675 1224L1678 1224Q1681 1224 1717 1235L1717 1238L1708 1238L1689 1232L1684 1232L1684 1238L1681 1238M1747 1232L1747 1227L1750 1227Q1755 1227 1755 1232L1747 1232M1265 1230Q1265 1226 1274 1221L1276 1227L1271 1230L1265 1230M1651 1221L1651 1219L1653 1219Q1658 1221 1667 1221L1667 1224L1659 1224Q1653 1221 1651 1221M1568 1208L1576 1208L1576 1213L1574 1213Q1568 1212 1568 1208M1590 1205L1590 1202L1598 1202Q1603 1205 1609 1205L1609 1208L1607 1208L1590 1205M1144 1205L1139 1197L1150 1197L1150 1199Q1150 1205 1144 1205M1571 1199L1568 1194L1585 1197L1585 1199L1571 1199M1552 1194L1552 1188Q1557 1191 1560 1191L1560 1194L1552 1194M1439 1161L1441 1161L1455 1164L1455 1166L1444 1166Q1439 1166 1439 1161M1419 1161Q1419 1155 1408 1155L1408 1153L1414 1153Q1419 1155 1425 1155Q1425 1161 1419 1161M187 655Q190 649 190 647Q195 647 195 652L195 658Q190 655 187 655M184 644L184 636Q190 636 190 641L190 644L184 644M105 476Q110 476 110 468Q107 451 94 451L99 443L99 440L96 440L91 443L91 437L94 432L88 429Q88 432 85 432Q85 429 83 424L96 421Q96 427 135 520L105 476M80 363L80 360L85 360L85 369Q80 368 80 363M55 305Q47 280 47 270Q52 270 61 303L55 305M72 305L63 281L69 281Q69 285 74 292L74 305L72 305M39 259L39 253L44 253L47 267Q43 267 39 259M36 250Q30 233 30 228Q37 228 39 248L39 250L36 250M11 220Q-19 186-19 149L-30 149Q-30 146-27 140Q-28 126-38 118Q-33 109-33 102L-27 102Q-10 158 6 179L3 184Q8 201 14 209L14 220L11 220M19 206Q11 182 3 165Q6 165 6 162Q-1 162-19 94L-11 94L-11 110L6 140L6 132L11 132L19 138L28 132Q28 140 36 149L36 151Q22 151 22 165Q25 165 36 184L36 193L30 193L30 187L28 187Q22 187 22 206L19 206M39 176L44 173L47 179L47 182L44 182Q39 181 39 176M3 127Q3 117-3 102L3 102Q3 111 19 124L19 127L14 124Q9 127 3 127M-41 99L-41 94Q-36 94-36 85L-33 85Q-33 88-30 94Q-38 94-38 99L-41 99M-27 69Q-22 69-19 85Q-25 85-27 69M-30 66L-52 0L-52-3Q-42 5-25 66L-30 66M0 55L0 52Q6 52 6 58L6 61Q0 60 0 55M-22 52L-22 41Q-18 41-14 50L-19 52L-22 52M30 41L33 36Q20 17 17-5L19-5Q23-5 41 50L39 50Q35 50 30 41M-8 47L-8 44Q-7 39-3 39Q-3 42 0 47L-8 47M-16 30Q-16 26-22 14L-16 14Q-16 19-11 19L-14 25L-11 30L-16 30M3-36Q3-40-3-52Q0-57 0-66Q6-66 14-38L8-36L3-36M-60-38L-55-38L-55-49L-60-49L-60-38M-47-47L-47-52L-41-49L-38-49L-38-58L-33-58L-33-47L-38-44Q-44-47-47-47M-66-55L-60-55L-60-58Q-60-63-66-63L-66-55M-47-77Q-47-85-49-85Q-47-90-47-93Q-41-93-41-85Q-44-80-44-77L-47-77M-16-91L-14-96Q-19-97-19-102L-19-104Q-18-110-14-110L-11-110Q-11-99-5-99Q-8-94-8-91L-16-91M-36-159Q-19-145-19-124L-22-124Q-36-137-36-159M-102-129L-99-129L-99-132L-157-311L-162-311Q-162-301-140-231L-146-228L-151-228Q-154-245-159-245L-165-245L-165-242Q-156-209-148-209Q-146-213-146-225L-137-225Q-121-181-107-132L-102-129M-96-267L-91-269L-88-264L-88-261L-91-261Q-96-262-96-267M-85-272Q-85-278-88-283L-88-286L-85-286Q-85-282-80-275L-85-272M-107-335L-104-335L-104-341Q-113-353-113-366L-118-366L-118-363Q-113-335-107-335M-129-374L-126-379L-132-382L-135-382L-135-379Q-134-374-129-374M-135-399L-135-401Q-135-407-140-407L-140-404Q-139-399-135-399Z"  horiz-adv-x="451" vert-adv-y="2048"  />

      
      <glyph glyph-name="uni47" unicode="&#x47;" d="M655 1026Q787 1012 787 975Q787 970 796 960L796 942Q796 939 793 939L796 933L796 918Q785 903 769 903L772 897Q769 897 769 894Q744 897 727 903L721 900Q716 903 709 903Q709 898 697 891Q694 891 694 894Q653 888 634 879L637 873L520 846Q520 840 514 840L508 843Q453 810 397 786L271 711Q210 643 178 606Q139 534 136 504Q136 501 139 501L136 480L136 471Q136 426 157 426Q196 402 247 402Q366 402 496 513Q585 608 595 636Q610 655 622 681L619 687L619 690Q619 693 622 693L619 699Q619 702 622 702Q616 719 616 753Q624 771 643 771L646 771Q691 727 700 687Q721 604 721 582L718 582L721 576Q721 573 718 573L742 381Q736 372 733 348Q733 345 736 345Q736 226 652 108Q607 58 550 39Q497 15 394-3L373 0Q370 0 370-3L355 0L343 0L334-6L313-6Q293-6 268 6Q265 6 244 9Q238 6 235 6Q196 18 184 18L184 21L187 27Q94 42 19 42L19 45L7 36Q-35 36-35 45Q-32 45-32 48L-44 48Q-44 39-50 39L-53 39Q-59 39-59 45L-65 42L-80 42L-164 54Q-206 69-215 69Q-224 66-224 63Q-334 75-377 75L-410 75L-410 84L-449 84Q-530 84-566 63Q-566 60-569 60L-593 60L-593 66L-599 66L-593 57Q-614 57-620 51L-626 51L-626 57L-629 57L-641 48L-644 54Q-670 52-680 36Q-829-13-917-129Q-941-177-953-225Q-921-270-860-270L-845-270Q-768-270-581-219L-581-222L-569-216L-566-222Q-577-231-593-231L-593-237L-590-237Q-584-237-548-231L-548-237Q-560-237-560-243L-527-234Q-524-234-524-237L-509-234L-497-234L-497-237Q-501-249-506-249L-506-240L-509-240Q-513-240-518-249L-509-249Q-526-260-611-288Q-611-291-614-291Q-619-288-626-288Q-626-294-644-294L-644-297L-638-297L-596-288L-593-288L-593-294Q-619-300-680-321L-686-318Q-709-327-755-336L-755-339L-752-339L-587-309L-581-318L-581-321L-596-318L-599-318L-599-321Q-590-321-590-327Q-609-336-620-336Q-619-342-614-342L-608-339L-605-345L-653-360L-647-369L-647-372L-659-372Q-690-381-695-381L-695-387L-692-387Q-644-372-641-372L-635-375Q-629-372-626-372L-626-375Q-616-369-608-369L-608-378Q-738-408-746-408L-746-411L-740-411L-740-417L-746-417Q-749-417-749-414Q-758-417-758-420L-773-417L-779-417Q-786-417-791-420Q-797-418-824-414L-830-417Q-863-412-947-360Q-1023-270-1046-162Q-1046-141-1049-141Q-1049 5-884 126Q-795 188-599 222Q-584 222-488 234L-488 231Q-482 234-479 234Q-378 234-44 195Q168 180 217 159L253 153Q256 153 256 156L271 153L295 153Q438 153 562 237L592 273Q623 307 640 393L646 438Q646 441 643 441L646 453Q643 501 643 510L637 510Q637 505 628 495L628 489L634 489L634 483Q613 459 613 447L625 459L628 459Q628 429 589 393Q560 367 550 351Q529 341 469 300L367 267Q345 273 322 273L307 270Q307 273 304 273Q304 265 295 261Q151 289 151 318Q119 350 46 474Q37 519 34 567Q34 731 193 855Q382 969 412 969Q519 1011 655 1026M586 876L586 873L595 873L595 879Q589 876 586 876M544 867L544 861L559 864L559 870L544 867M523 861L523 858L538 858L538 861L523 861M487 849L487 846L496 846L496 852Q490 849 487 849M616 522L619 522Q625 522 625 528L622 528Q616 527 616 522M424 300L427 300L442 303L442 309Q424 306 424 300M271 276Q272 270 277 270Q283 270 283 276L271 276M-707-372L-707-378Q-702-375-695-375L-695-369Q-700-372-707-372M-722-375L-722-378Q-722-382-713-387L-713-384Q-716-378-716-375L-722-375Z"  horiz-adv-x="838" vert-adv-y="2048"  />

      
      <glyph glyph-name="uni48" unicode="&#x48;" d="M444 1714Q444 1711 447 1711Q441 1677 436 1677L433 1677Q433 1691 439 1691L436 1697Q439 1714 444 1714M450 1702L456 1702Q456 1660 441 1660Q433 1660 433 1637L439 1637L439 1648L444 1648Q444 1603 427 1603L427 1600Q436 1600 436 1594L436 1586Q436 1583 433 1583Q436 1577 436 1574Q431 1565 427 1543L430 1537Q424 1524 419 1489L422 1483Q422 1480 419 1480L422 1460L422 1452Q422 1439 416 1429Q416 1426 419 1426Q411 1348 404 1340Q404 1337 407 1337Q390 1207 379 1152Q382 1147 382 1144Q376 1142 370 1129L373 1124Q373 1121 370 1115Q370 1112 373 1107Q373 1093 347 990Q347 959 333 930Q335 918 339 918Q387 930 413 930Q462 930 570 847L618 790Q652 763 652 696Q652 689 655 653Q630 498 590 425Q552 338 541 328L536 331Q507 276 490 260L487 260L490 274L484 274Q482 274 470 260L467 260Q455 268 447 268Q442 265 439 265Q439 276 376 288Q376 292 356 305Q362 332 436 494Q490 624 490 673Q501 713 501 730Q495 807 487 807Q419 807 347 710Q291 647 196 496Q150 399 54 291Q17 254 0 254L-69 271Q-69 276-106 283Q-111 280-114 280L-140 294Q-143 299-143 305L-143 311L-75 374Q22 485 88 656Q125 742 142 804Q145 804 148 813Q145 818 145 821Q165 875 199 1032L202 1032Q202 1035 199 1035Q202 1057 211 1067L208 1072L211 1078L208 1084Q211 1109 213 1109L211 1115L228 1186L225 1192Q233 1212 242 1223Q236 1223 236 1229L239 1243L236 1249Q244 1269 253 1283Q250 1283 245 1286L253 1318L250 1323Q258 1323 262 1352Q265 1352 265 1355L259 1363L265 1383L259 1386Q260 1407 279 1437Q279 1444 282 1449Q276 1449 276 1454L276 1460Q276 1463 279 1463L276 1469Q276 1474 288 1500Q282 1500 282 1506Q288 1506 288 1511L288 1520L285 1526L299 1546L296 1551Q303 1586 313 1586L333 1663L347 1665L350 1660L350 1657Q342 1608 339 1608Q339 1605 342 1605L339 1591L339 1588Q348 1588 350 1634L356 1634L356 1628L359 1608Q353 1608 350 1591L356 1594Q356 1591 359 1591L347 1540L347 1537Q347 1531 350 1526Q346 1513 339 1503L339 1500L345 1500Q356 1505 356 1526L362 1526L362 1520L370 1520Q363 1537 359 1537L367 1551L367 1557L362 1557L370 1568Q367 1568 367 1571Q373 1571 373 1577L367 1580Q375 1608 382 1608L390 1608L390 1603Q390 1597 379 1597L379 1588Q389 1588 402 1577Q402 1586 404 1586L402 1591L402 1597L407 1597L407 1586L413 1586L419 1611L416 1611L410 1608L407 1614Q407 1634 427 1634L427 1637Q427 1668 436 1668Q437 1663 441 1663Q450 1690 450 1702M359 1651L362 1651Q367 1650 367 1645L367 1640L359 1640L359 1651M416 1628L416 1617Q422 1617 422 1623L422 1628L416 1628M430 1628L430 1620L436 1620L436 1623Q436 1628 430 1628M382 1617L384 1617Q384 1613 376 1608L376 1611Q377 1617 382 1617M336 1583L336 1571L333 1557L339 1557Q339 1571 342 1571L339 1577L342 1583L336 1583M370 1557L370 1554L379 1554Q385 1571 396 1571Q393 1577 393 1580Q370 1561 370 1557M345 1571L345 1563L350 1563Q347 1568 347 1571L345 1571M393 1554L390 1554L384 1557L376 1543Q379 1538 379 1531L384 1531Q384 1538 396 1540L399 1566Q393 1566 393 1554M305 1557L302 1543L305 1543Q310 1543 310 1548L310 1557L305 1557M370 1534L370 1531Q373 1526 373 1523L376 1523L376 1531L370 1534M336 1460L347 1460L350 1471L345 1474Q353 1489 353 1494Q350 1494 350 1497Q340 1497 336 1460M365 1457L365 1454Q365 1449 370 1449L370 1452Q370 1457 365 1457M330 1454L330 1452Q333 1447 333 1440Q327 1440 325 1426Q331 1426 336 1403L342 1403L342 1417Q346 1429 356 1429Q356 1434 350 1434L350 1432Q339 1436 339 1440L345 1449L345 1452L330 1454M288 1452L288 1434L290 1434L293 1452L288 1452M313 1437Q316 1432 316 1429L319 1429L319 1437L313 1437M362 1432L362 1423Q367 1423 367 1429L367 1437Q362 1436 362 1432M327 1375L327 1363Q333 1363 333 1369L333 1375L327 1375M322 1323L322 1320L327 1320L327 1329Q322 1328 322 1323Z"  horiz-adv-x="703" vert-adv-y="2048"  />

      
      <glyph glyph-name="uni49" unicode="&#x49;" d="M217 1027L224 1027Q224 1013 228 1013L224 996L224 962Q224 958 221 958L224 951L221 934L231 934Q235 967 245 993L262 993Q263 999 269 999L283 989L286 1003L293 1003L293 979Q299 979 307 1013L317 1013Q317 999 324 999L324 972Q324 969 320 969Q324 963 324 948L327 948L327 965L334 965L334 951Q327 933 320 818Q313 795 286 585Q283 585 283 574L286 568Q279 549 241 293Q237 293 214 266Q111 273 111 287L87 283Q29 291 29 307L29 324Q46 324 108 681Q113 731 122 749L118 756Q125 796 156 910Q156 927 159 927L156 934Q165 958 170 958Q170 955 173 955Q181 996 193 1017L200 1013L204 1013Q204 1020 207 1020L217 1020L217 1027Z"  horiz-adv-x="375" vert-adv-y="2048"  />

      
      <glyph glyph-name="uni4a" unicode="&#x4a;" d="M136 1033Q138 1033 150 1023Q155 1023 155 1028Q178 1023 179 1018Q184 1021 186 1021Q225 1012 225 992Q249 802 249 770L249 660Q230 443 213 395Q213 384 198 366Q189 349 172 287Q177 286 177 282Q167 259 136 210Q88 96 61 80Q49 67 49 60L44 60L44 63L47 75L44 75Q20 46 13 46L13 41L18 41L18 36Q12 36 1 8Q-1 8-1 5L4 3Q9 15 20 27L25 27L25 24Q2-16-18-33Q-18-45-30-53L-33-53Q-32-47-13-19L-13-17L-16-17Q-26-38-45-53Q-49-50-52-50L-52-55L-47-55L-47-57Q-63-66-66-79Q-78-98-85-98L-85-110L-78-110Q-78-106-69-91L-64-91L-64-94Q-75-112-90-149L-97-154L-105-154Q-117-163-117-168Q-129-183-129-190L-134-190L-129-197Q-136-204-167-223L-172-221L-172-228L-174-228Q-179-228-179-219Q-189-221-189-228L-191-228Q-196-228-196-223Q-196-221-177-199L-177-197Q-185-207-194-207Q-194-219-218-243L-220-252L-215-252L-211-250Q-211-256-206-262Q-208-262-223-279L-232-272Q-227-264-227-260L-215-262L-213-257L-218-255L-227-255Q-227-261-268-303L-283-300L-285-300Q-285-317-300-322L-302-317Q-297-317-297-312Q-300-312-300-310L-290-303L-292-298L-273-284L-271-284Q-271-290-276-298L-273-298Q-256-281-199-207L-199-204L-203-204Q-203-210-261-276Q-266-276-266-272Q-261-272-261-267L-264-262Q-251-256-251-255L-251-248Q-233-231-230-231L-232-226L-230-214L-235-214L-235-219L-239-219L-239-216Q-237-212-237-209L-239-209L-268-243L-268-245L-264-245L-264-255L-268-255L-268-248L-271-248Q-312-285-312-305L-309-305L-309-310L-312-310L-319-305Q-373-372-398-397L-401-392Q-397-392-391-382L-393-382L-413-402L-415-402L-415-399Q-399-373-396-373Q-341-299-314-269Q-312-269-307-257L-309-257Q-352-308-355-308Q-364-326-386-344L-389-344Q-389-339-393-339Q-393-342-401-346L-403-341Q-353-284-309-221Q-114 6-1 219Q45 309 81 436Q112 606 112 732Q112 734 109 739L112 753L112 766Q107 832 97 905Q97 950 112 970L109 987L109 1011Q115 1021 129 1025Q129 1033 136 1033M-66 5L-59 5L-59 10L-61 10Q-66 9-66 5M-71 0Q-71-2-73-7L-71-7Q-66-7-66-2L-66 0L-71 0M-88-26L-88-29L-85-29Q-81-29-81-24L-81-21L-83-21Q-88-22-88-26M-148-108L-148-110Q-143-108-141-108L-141-103L-143-103Q-148-104-148-108M-165-118L-162-118Q-158-118-158-113L-158-110Q-161-110-165-118M-199-158L-199-161L-194-158L-189-158L-191-163L-191-166L-184-166L-184-154Q-189-154-189-151Q-199-155-199-158M-131-156L-134-161L-134-163L-131-163Q-126-163-126-158L-131-156M-208-168Q-226-197-230-197Q-235-198-235-202L-230-202L-223-197Q-220-202-220-204Q-198-184-194-171L-191-171L-191-168L-196-168Q-196-173-201-173Q-201-168-206-168L-208-168M-150-178Q-146-178-146-185L-141-185Q-133-173-126-173L-126-168L-131-168Q-136-168-136-175Q-141-175-141-168Q-145-168-150-178M-206-175L-203-180L-208-183L-211-183L-211-180Q-210-175-206-175M-170-183L-170-190Q-166-190-162-183L-162-180Q-167-183-170-183M-187-183Q-187-185-199-199L-199-202L-196-202Q-192-202-182-185L-187-183M-215-187L-213-187L-213-192L-223-195Q-223-191-215-187M-155-195L-155-199L-153-199Q-148-197-146-197L-146-192L-148-192Q-153-195-155-195M-162-207Q-162-211-170-219L-167-219Q-160-219-160-209L-160-207L-162-207M-283-221L-283-223L-276-223Q-276-221-273-216L-278-216Q-283-217-283-221M-292-228Q-292-238-302-248L-300-248Q-285-236-285-228L-292-228M-319-250Q-318-255-314-255Q-310-252-304-252L-304-248L-307-248L-319-250M-237-276L-230-281Q-230-288-247-298L-251-298L-251-296Q-242-276-237-276M-357-293L-374-315L-377-320L-374-320L-362-315L-365-310L-353-296L-357-293M-386-327Q-386-329-389-334L-386-334Q-377-331-377-327L-386-327M-307-325L-302-325L-302-327Q-308-339-312-339L-316-339L-316-337Q-307-328-307-325M-389-346L-386-351Q-390-361-393-361L-396-361L-396-353Q-396-350-389-346M-403-358L-401-358Q-396-359-396-363L-396-365Q-406-365-410-375Q-410-382-415-382L-418-382L-418-377Q-405-358-403-358M-427-375L-425-375L-425-377Q-425-381-432-385L-434-385L-434-382Q-434-379-427-375M-439-392L-437-397L-442-399L-444-399L-444-397Q-443-392-439-392M-418-404L-413-404L-413-406Q-413-410-422-414L-425-409L-418-404M-410-409L-410-411Q-413-416-413-418L-418-418L-418-416Q-418-413-410-409M-422-421L-420-426L-425-428L-427-423L-422-421Z"  horiz-adv-x="304" vert-adv-y="2048"  />

      
      <glyph glyph-name="uni4b" unicode="&#x4b;" d="M387 1704L387 1698Q387 1694 379 1655L373 1655L373 1658Q382 1704 387 1704M364 1632L370 1632L361 1592L356 1592L356 1595Q356 1597 364 1632M353 1583L359 1583Q359 1573 338 1485L344 1485Q344 1503 350 1503L347 1508L347 1514L356 1514L353 1500L356 1500Q356 1497 353 1497L356 1477L356 1471L347 1477L347 1471Q347 1468 350 1468Q339 1444 336 1411L327 1402Q327 1405 324 1405Q316 1371 313 1371L313 1362L318 1365L321 1365Q321 1356 330 1356L330 1345L327 1345L321 1348L318 1327L324 1330L327 1330L327 1327L261 905L264 905Q321 934 410 997Q417 997 471 1037Q499 1059 522 1063Q522 1081 583 1100L583 1097L577 1089L586 1089Q586 1096 600 1103L612 1103L629 1083Q626 1072 609 1054Q617 1054 617 1049L632 1051L637 1051Q643 1051 643 1046L637 1037L637 1031L643 1034L646 1034Q641 1023 635 1023L635 1020L637 1014Q631 1014 620 997Q635 996 635 988L635 985L626 974L626 971L629 971L640 977L640 974Q533 883 425 810Q409 795 321 741Q321 735 376 609Q397 552 416 517L491 353Q485 352 485 347Q499 308 499 304Q497 304 497 301Q500 301 525 247L520 244Q485 319 471 319Q471 312 468 307Q479 303 491 270Q495 270 499 241Q504 241 522 195Q528 194 528 189L528 178Q528 172 522 172Q517 181 517 186L514 186Q508 186 508 181Q516 173 545 97Q553 97 557 66Q563 65 563 60L563 51Q568 50 568 46L568 40Q568 37 566 37L568 31Q566 26 566 20Q568 20 568 17L574 20Q578 20 589-3L589-6L571-6Q571 2 566 2Q566 0 563 0Q568-14 568-26L563-26Q563-18 557-18L557-21L566-55Q531-52 531-26Q534-26 534-23Q522-11 511-9L511 2L517 2L517 5Q502 5 502 14Q503 20 508 20L508 14L511 14L511 17Q507 28 502 28Q502 23 497 23Q497 25 485 40L485 48Q467 48 462 77L456 77L459 71L459 69L451 69Q402 157 350 281Q346 281 310 365Q296 382 258 471Q232 515 206 583L201 583Q167 378 97 287Q97 275 63 250L34 253L14 253Q5 253-18 264Q-21 264-27 261Q-47 263-47 267L-52 264L-55 264Q-78 276-84 290Q-84 297-38 362Q-4 427 8 491Q38 626 54 626L54 635L48 632L45 632Q45 655 74 704L83 744L71 750Q100 813 100 816L100 847Q106 854 106 859L103 873L106 873Q106 876 103 876Q109 911 117 931L114 937Q132 965 132 971Q126 997 126 1008Q134 1011 134 1014Q132 1020 132 1023Q134 1023 134 1026L140 1023L143 1023Q137 1032 137 1037Q141 1037 146 1046L146 1049L137 1043L134 1049Q146 1053 146 1057L143 1063L155 1083L152 1089Q166 1134 172 1178Q174 1178 189 1181L192 1175L192 1172Q192 1169 189 1169Q189 1166 192 1166Q189 1160 189 1126L192 1126L192 1120L186 1123L186 1109L192 1100L192 1097Q192 1095 189 1095Q192 1090 192 1083L195 1083Q201 1135 206 1135L203 1152L209 1155Q215 1152 218 1152L218 1172L212 1169L209 1169L209 1175Q210 1181 215 1181Q220 1178 226 1178L232 1187Q224 1187 224 1192Q224 1198 229 1198L226 1204Q226 1210 235 1210L229 1218Q235 1218 235 1224L229 1233L229 1247L221 1247L221 1250Q222 1256 226 1256Q226 1253 229 1253L232 1264L238 1264L238 1256L241 1256L244 1276L232 1284L238 1293Q234 1293 229 1302L229 1307L235 1307L235 1302L241 1304L244 1304L244 1290Q252 1290 252 1336Q243 1330 238 1330Q238 1333 235 1333L244 1350Q241 1355 241 1362L244 1362L241 1368L241 1373Q247 1373 252 1376Q247 1386 247 1394Q247 1399 258 1399L258 1405L252 1405L252 1416Q264 1428 264 1434L270 1434L270 1428L275 1428Q277 1460 287 1460L295 1454Q295 1463 301 1477L304 1477L304 1457L307 1457Q311 1457 318 1468L318 1471Q310 1471 310 1477L318 1485L315 1491L336 1517Q333 1523 333 1526L330 1526Q330 1517 324 1517L321 1517Q321 1520 324 1520L318 1534L327 1534L327 1549L324 1549L318 1546L315 1552L315 1554Q316 1560 321 1560L324 1560L324 1554L338 1557L338 1554Q338 1549 330 1549L330 1543L338 1543Q345 1543 353 1583M356 1549L361 1549Q361 1539 364 1534L359 1531L356 1531L356 1549M315 1531L318 1531Q315 1527 315 1517L310 1517L310 1526Q311 1531 315 1531M353 1526L356 1526Q360 1526 364 1517L361 1517Q357 1517 353 1526M310 1506L313 1500L307 1497L304 1503L310 1506M321 1485L324 1485Q328 1485 333 1494L330 1494Q326 1494 321 1485M356 1497L361 1497L361 1494Q361 1488 356 1488L356 1497M333 1465L333 1454L336 1454L336 1465L333 1465M287 1442L287 1439L290 1439L292 1451Q287 1451 287 1442M301 1451Q301 1441 298 1437L298 1434L301 1434L304 1445L304 1451L301 1451M313 1437L313 1428Q318 1428 318 1434L313 1437M327 1431Q327 1426 321 1414L327 1414L330 1428L330 1431L327 1431M292 1414L292 1399L298 1402Q304 1402 304 1394L310 1394Q310 1403 313 1408L313 1411L310 1411L310 1405L301 1405Q295 1405 295 1411Q298 1416 298 1419Q292 1418 292 1414M215 1408Q226 1402 226 1394L206 1284L212 1281Q215 1287 215 1290L218 1290L218 1281Q201 1281 201 1235Q195 1235 195 1212L189 1212Q189 1223 183 1230L183 1256Q201 1368 212 1408L215 1408M235 1399L241 1399Q238 1388 238 1379L232 1379L232 1385L235 1399M327 1396L330 1391L330 1388L321 1388L321 1391Q322 1396 327 1396M272 1379Q272 1372 267 1365L272 1362L275 1362Q275 1364 278 1379L272 1379M287 1373L287 1371Q292 1371 292 1376L292 1379Q287 1378 287 1373M336 1382L336 1373L330 1373L330 1376Q331 1382 336 1382M295 1368Q296 1362 301 1362L304 1368L304 1371Q298 1368 295 1368M232 1368L235 1368L235 1365Q235 1359 229 1359L226 1359L226 1362Q227 1368 232 1368M252 1350L258 1348L261 1353L261 1359Q257 1359 252 1350M284 1353L284 1350Q290 1350 290 1356L290 1359Q284 1358 284 1353M267 1348L267 1342L272 1342L272 1353Q267 1352 267 1348M209 1267L215 1267L215 1253L209 1253L209 1267M201 1210L206 1210L206 1201L201 1201L201 1210M178 1175L178 1166L183 1166L183 1169Q183 1175 178 1175M186 1080L186 1077Q189 1072 189 1069L192 1069L192 1080L186 1080M178 1066L178 1049Q183 1049 183 1040L189 1040L186 1054L186 1057L192 1057L192 1066L178 1066M180 1034L178 1023L180 1017Q178 1011 178 1008L183 1006Q183 1024 186 1034L180 1034M178 1003L178 994Q183 994 183 1000L178 1003M169 991L172 985L172 980L169 965L175 962L178 962L175 977Q180 977 180 983Q178 988 178 991L169 991M68 741L77 741L77 738Q77 732 71 732L68 732L68 741M321 356L321 350L330 350Q330 356 324 356L321 356M528 227L531 227Q537 226 537 221L537 215Q533 215 528 224L528 227M505 204L505 201Q506 195 511 195L514 195L514 198Q514 204 508 204L505 204M543 198L548 198Q548 195 551 189L548 189Q543 189 543 195L543 198M560 161L566 161L568 146Q562 146 560 161M531 158L534 158Q540 157 540 152Q540 146 534 146L531 152L531 158M540 143Q545 142 545 138L540 135Q534 135 534 140L540 143M577 123L583 123Q589 105 589 100Q582 100 577 123M554 112L557 106L551 103L548 109L554 112M563 80L566 80Q570 80 574 71L574 63L571 63Q566 63 566 69L568 74Q563 74 563 80M548 63L548 60Q549 54 554 54L554 57Q554 63 548 63M545 48L545 40Q553 26 557 25L560 25L560 28Q549 48 545 48M537 31L537 28Q540 23 540 20L543 20L543 28L537 31Z"  horiz-adv-x="674" vert-adv-y="2048"  />

      
      <glyph glyph-name="uni4c" unicode="&#x4c;" d="M395 1718L395 1714Q383 1665 373 1655L375 1650Q375 1645 358 1635L358 1630Q364 1630 364 1626Q364 1622 360 1622L358 1622Q355 1622 351 1628Q365 1677 375 1677L371 1683L384 1716L389 1714L395 1718M384 1666L389 1666L386 1652L382 1652L382 1655L384 1666M395 1657L397 1657L397 1655Q397 1650 393 1650L391 1655L395 1657M378 1648L382 1648L382 1646Q382 1641 378 1641L378 1648M356 1617Q360 1617 360 1613Q351 1613 334 1532Q330 1532 329 1521Q334 1521 336 1532L340 1532L340 1525L345 1525Q345 1538 358 1538L358 1540Q358 1543 351 1547Q358 1567 362 1567Q366 1565 369 1565L369 1560L362 1560L362 1551Q373 1557 373 1565L378 1565Q375 1543 369 1525L369 1523L371 1523Q371 1527 397 1595L400 1595Q400 1593 402 1593Q402 1590 386 1549L386 1547L391 1547Q395 1559 395 1560L404 1560L408 1558Q408 1578 417 1580L417 1578L408 1547L404 1547L404 1551L406 1556L402 1558L400 1558Q400 1549 382 1538L380 1534L380 1532L382 1521Q373 1519 373 1507L364 1507L364 1512L362 1512Q362 1498 349 1485L347 1490L347 1492L349 1496L347 1496L336 1490L331 1490L331 1492L334 1496L334 1499L331 1499Q320 1477 303 1419L305 1419Q308 1419 316 1435L327 1433L334 1433L334 1424Q327 1414 327 1408L327 1406L329 1406L351 1470L353 1470Q358 1469 358 1466L358 1463L353 1457L353 1455L364 1461Q369 1459 371 1459Q376 1472 380 1472Q380 1467 386 1461Q386 1458 378 1433Q382 1432 382 1428L382 1426Q367 1426 351 1347Q346 1340 340 1323Q343 1323 347 1320Q346 1311 331 1292Q329 1288 329 1285Q331 1285 331 1283Q328 1283 325 1276L325 1265Q320 1265 316 1246L320 1246L320 1243Q320 1239 314 1239L314 1235L318 1235Q230 961 151 643L136 601L138 597Q96 479 57 388Q13 267-5 267L-9 267Q-64 275-64 287Q-103 287-115 315Q-86 365-71 417Q-11 538 46 749Q61 779 63 797L61 801L83 867L85 867L83 872L87 878L85 883Q90 898 94 898L92 903Q99 927 103 927Q103 925 105 925Q105 927 107 927L103 936Q106 936 112 944L107 947Q107 944 105 944L105 949Q118 985 123 1017Q132 1022 134 1028Q130 1028 127 1035L149 1074L145 1076Q145 1074 142 1074L140 1079Q149 1079 153 1092L151 1096Q153 1100 153 1103L149 1105Q156 1115 160 1138L164 1138L162 1142Q163 1147 166 1147Q167 1142 171 1142Q190 1207 202 1228Q199 1232 199 1237Q204 1237 210 1265L213 1265L210 1270Q213 1278 226 1292Q219 1292 219 1296Q219 1298 235 1316L235 1323L232 1323L232 1338Q236 1341 243 1367Q248 1367 248 1371L246 1375Q251 1395 259 1395L257 1406L257 1408Q263 1415 265 1433L268 1433Q272 1430 274 1430Q283 1448 283 1455L283 1461L281 1461Q274 1441 274 1437L270 1437Q276 1470 283 1470L287 1468L349 1617L356 1617M417 1587L422 1587L422 1584Q422 1580 417 1580L417 1587M406 1576L408 1571L408 1569L397 1569L397 1573Q399 1573 406 1576M422 1576L426 1576L426 1571Q426 1567 422 1567L419 1567Q422 1571 422 1576M349 1569L351 1569L351 1562Q344 1538 340 1538L340 1540Q340 1546 349 1569M367 1551L367 1545Q371 1545 371 1549L371 1551L367 1551M404 1540L404 1538Q404 1534 400 1534L397 1534Q397 1537 404 1540M331 1505L331 1501Q335 1501 338 1507L338 1510L336 1510Q331 1509 331 1505M364 1499L369 1499L369 1496L367 1492Q369 1492 369 1490L362 1490Q358 1490 358 1494L364 1499M316 1490L316 1481Q320 1481 320 1485L320 1490L316 1490M386 1492L386 1485L382 1485L382 1488Q383 1492 386 1492M334 1488L338 1488Q342 1487 342 1483L342 1481Q342 1477 338 1477Q338 1480 334 1485L334 1488M287 1483L290 1483Q290 1479 285 1479L283 1479Q284 1483 287 1483M312 1479L303 1446L303 1441L305 1441Q305 1452 316 1474L316 1479L312 1479M375 1455L378 1455Q382 1455 382 1459L380 1459Q375 1458 375 1455M351 1452L351 1446Q356 1446 356 1450L351 1452M334 1446Q338 1445 338 1441L334 1439L329 1439L329 1441Q330 1446 334 1446M298 1439Q296 1428 296 1426L296 1424L298 1424L303 1439L298 1439M316 1424L314 1419L314 1417L320 1417L318 1413L318 1411L320 1411L323 1419L316 1424M265 1415L265 1413Q270 1413 270 1417L270 1419Q265 1419 265 1415M292 1419L290 1408Q290 1404 294 1404L296 1404L296 1406Q292 1406 292 1408Q296 1416 296 1419L292 1419M301 1413Q301 1408 294 1395L301 1395L298 1400L305 1408L305 1413L301 1413M309 1413L309 1406Q314 1406 314 1411L314 1413L309 1413M314 1402L316 1402Q320 1402 320 1406L318 1406Q314 1405 314 1402M325 1404L323 1393L323 1391L325 1391L327 1402L327 1404L325 1404M375 1406L375 1404L373 1393L369 1393Q371 1406 375 1406M285 1397L285 1393Q290 1393 290 1397L290 1402Q285 1401 285 1397M336 1400Q331 1384 325 1369Q327 1369 327 1367Q323 1366 323 1362L323 1356L325 1356L329 1358L336 1358Q342 1369 342 1375L334 1384L338 1386Q339 1382 342 1382Q349 1382 349 1391Q347 1400 336 1400M294 1389L276 1347Q277 1342 281 1342Q284 1342 292 1378Q298 1378 298 1382L298 1389L294 1389M252 1380L254 1380Q259 1380 259 1384L259 1386Q256 1386 252 1380M301 1371L296 1373Q296 1371 294 1371Q296 1367 296 1364L305 1364L307 1375L301 1371M276 1373L276 1367Q281 1367 281 1371L276 1373M312 1367L309 1356L309 1353L312 1353L314 1364L314 1367L312 1367M320 1351Q320 1348 316 1342L316 1340Q317 1336 320 1336L325 1336L325 1340L320 1340Q320 1345 323 1349L323 1351L320 1351M303 1342L303 1334L305 1334L305 1342L303 1342M259 1287Q264 1288 279 1340Q267 1322 259 1287M292 1338L292 1331Q296 1331 296 1336L296 1338L292 1338M259 1323Q259 1314 254 1309L254 1307L259 1307Q259 1313 263 1320L259 1323M250 1263L250 1257L254 1257L254 1263L250 1263M243 1237Q243 1232 241 1228L246 1228L246 1237L243 1237M276 1226L276 1224Q281 1224 281 1228L281 1230Q276 1230 276 1226Z"  horiz-adv-x="270" vert-adv-y="2048"  />

      
      <glyph glyph-name="uni4d" unicode="&#x4d;" d="M422 945L422 942Q418 932 401 932L401 925L408 925Q417 932 465 942L482 938Q484 938 496 942Q528 942 607 901Q634 878 634 874Q631 868 631 864Q657 847 705 797Q751 845 850 888L867 891L867 888Q882 901 941 915L941 911L961 918Q967 915 971 915Q995 918 998 918Q1002 918 1039 905Q1039 910 1052 915Q1112 890 1160 864Q1195 852 1224 827Q1266 817 1318 726Q1355 683 1359 679Q1376 630 1376 618Q1372 618 1372 615Q1379 615 1379 605Q1372 598 1369 534Q1331 443 1130 305Q950 182 809 109Q682 22 587-56Q349-285 327-339Q278-407 273-407L263-407L263-410L270-420L266-420L260-417L250-417Q250-409 236-407L236-397L229-397Q229-407 223-407L219-407L219-403Q219-397 233-370L226-373Q219-373 219-366Q256-309 263-309L263-306Q243-306 243-296L273-255L280-258Q280-237 317-198L320-198L320-201L310-215L310-225L314-225Q319-225 331-205L331-194Q320-194 320-188Q384-103 401-103L401-110L408-110L401-100Q412-82 452-39L452-36L449-36Q442-39 438-39Q438-34 462-16L469-19L472-19L472-16L465-16Q466-9 472-9L479-12L482-12L482-9L475-9L475-2Q475 4 486 4L486 11Q445-17 445-22Q403-60 401-60L398-60L398-56L401-49L398-49Q394-49 368-80L368-83L374-83L374-90Q364-107 320-151L304-137Q307-133 307-120L304-120L304-117Q304-110 317-110L314-103Q314-98 354-76Q381-53 425 1L422 1L415-2L411 4Q422 8 432 28L438 28L438 31L435 38Q445 45 459 48L455 55L475 69Q472 69 472 72Q517 102 523 102Q557 128 583 160Q608 178 664 210Q664 224 705 247L695 247L695 251Q745 288 759 288L759 284L765 288L779 284L823 308Q858 338 867 338L867 342L853 342L853 348Q861 348 937 402L1028 460Q1032 460 1039 463Q1044 460 1052 460Q1071 477 1079 490Q1103 490 1103 517L1109 517L1109 507L1113 507Q1118 507 1123 517L1116 527Q1116 530 1156 561L1160 561L1167 557Q1167 566 1180 571Q1180 591 1194 591Q1214 611 1214 621Q1220 621 1231 659Q1239 659 1248 692Q1248 733 1092 753Q1078 753 1055 756Q966 750 883 699Q790 637 725 537Q703 510 674 456L678 450L634 342Q625 342 597 318L587 318Q526 370 526 389Q526 409 516 409Q516 402 509 402L502 402Q502 416 475 463Q482 487 499 514Q496 519 496 527Q507 531 526 568L523 574Q537 578 553 611Q550 611 550 615L563 625L560 632L560 635L593 739L597 756Q591 807 583 807Q425 807 209 503Q209 498 186 460L145 352L155 335L152 321Q155 315 155 308L138 298L128 298Q125 298 125 301Q118 298 115 298Q111 298 71 342Q66 342 41 385Q37 385 17 406Q17 459 34 493Q27 493 27 503Q37 532 41 534L37 541L37 547Q45 555 54 591Q66 591 101 642Q117 642 128 669L142 682L138 689Q169 739 199 766Q206 766 229 800L314 878L310 878Q304 874 300 874L300 878Q300 884 324 891Q325 884 331 884Q341 891 347 891L347 901L344 901Q337 898 334 898L334 901Q377 934 418 945L422 945M378 918L378 915L388 915Q393 915 398 925L395 925Q384 918 378 918M742 271L745 271Q759 276 759 281L752 281Q747 281 742 271M502 28Q504 21 509 21L513 21Q509 27 509 35Q502 34 502 28M411-33L405-43L411-46Q411-36 418-36L418-33L411-33M361-120L364-127L358-130L354-130L354-127Q355-120 361-120M273-188L273-198L266-198L266-194Q268-188 273-188M260-205L266-208L277-208Q251-253 240-258L236-258L236-255Q240-249 240-245L223-262L219-255Q243-217 260-205M287-252L293-255L297-248L297-245L293-245Q287-246 287-252M243-434Q249-437 253-437L253-444Q244-444 233-454L233-444Q233-439 243-434Z"  horiz-adv-x="1407" vert-adv-y="2048"  />

      
      <glyph glyph-name="uni4e" unicode="&#x4e;" d="M184 948L198 948Q204 948 223 920Q241 920 247 899Q247 889 286 860Q297 805 297 786L300 786Q441 909 564 909L592 909Q749 909 860 751Q906 690 906 638L906 631Q906 497 726 297Q726 278 582 128Q434-52 356-193Q356-189 353-189L356-182L356-179L349-179Q349-187 339-200Q332-196 328-196L342-168L339-168L283-238Q272-288 261-288Q259-288 247-309L251-316L251-319Q251-327 233-330Q233-323 226-323Q222-323 209-362Q212-368 212-372Q203-404 198-404L195-397L195-386L202-376L202-372Q202-369 198-369L202-362L202-351L198-351Q191-351 191-362L191-372Q175-418 159-418Q152-405 152-390L152-386L156-362Q137-362 128-351Q164-180 209-91L216-87L212-80L212-77Q224-72 251 1Q266 33 286 33L286 36L279 47Q283 47 283 50L290 47Q298 49 311 75L297 75L297 78Q319 101 339 145L649 508Q751 650 751 730Q746 758 701 758Q538 758 466 663Q460 663 363 571Q351 561 342 561Q237 450 202 339Q202 323 198 318L202 297Q201 292 166 272L163 272Q103 311 33 349Q15 363 15 381Q23 381 33 430Q56 483 71 578L107 737Q103 743 103 747Q109 767 124 853Q131 853 138 884Q138 888 135 895L138 920L135 937Q148 948 184 948M230-284L233-291L223-312L223-319L230-316Q231-323 237-323L240-323Q240-319 244-312Q240-312 233-309L237-291L237-277Q230-278 230-284Z"  horiz-adv-x="951" vert-adv-y="2048"  />

      
      <glyph glyph-name="uni4f" unicode="&#x4f;" d="M350 1015L394 1015Q553 1015 644 872Q672 809 685 750L681 732L681 717Q681 709 685 702Q670 612 630 529Q630 494 578 422Q546 416 501 367Q467 352 412 316L416 316Q462 330 471 330L471 323L298 264Q229 264 155 316Q126 344 85 415Q85 420 44 518Q40 562 33 562Q33 695 173 780Q224 803 269 813Q269 817 272 817Q319 807 335 780Q335 773 353 743L353 732Q353 711 313 680Q320 679 320 673Q292 659 272 621L272 614L276 614L295 625L309 625L232 570Q191 527 180 485Q180 477 210 463L228 463Q295 463 416 522Q502 586 538 662Q563 708 574 787L574 813Q548 854 460 875Q427 875 405 883L342 875L342 883Q347 883 383 890L446 890L464 887L468 894L460 898Q429 894 409 894L353 912L346 912Q338 912 331 909Q325 912 317 912L298 909Q278 934 269 934Q254 940 254 945Q254 949 269 968Q269 983 250 997Q294 1015 350 1015Z"  horiz-adv-x="714" vert-adv-y="2048"  />

      
      <glyph glyph-name="uni50" unicode="&#x50;" d="M476 1018L502 1018Q590 1008 650 979Q730 944 788 831Q788 828 817 712Q817 709 814 709L817 696Q817 562 721 478L711 465Q714 459 714 455Q691 428 630 388L614 391L608 391L608 388Q611 381 611 378Q458 282 373 282L360 282Q329 282 286 352Q246 400 238 433Q238 437 254 446Q261 446 290 442Q366 442 534 552Q698 675 698 751Q704 751 704 812Q704 823 598 851Q572 851 557 854Q465 854 412 783Q371 748 270 590Q213 495 81 253Q25 147-90 18Q-260-147-309-172Q-567-377-643-394L-643-397L-649-394L-720-426L-723-420Q-716-413-711-413L-714-397Q-708-394-701-394Q-701-387-707-387L-711-387Q-724-397-736-397Q-736-394-740-394L-736-387Q-740-381-740-378Q-726-365-678-346L-672-336Q-696-330-698-330Q-698-336-704-336L-701-342L-701-346L-720-336Q-733-342-740-342L-730-355L-730-362L-736-362Q-736-357-743-349Q-759-358-765-358L-765-355Q-759-342-746-342L-746-336L-749-336L-775-349Q-791-345-791-339L-717-281Q-717-271-701-262L-691-262Q-690-256-685-256L-682-256L-682-262L-675-262L-675-259Q-678-253-678-249L-630-230L-637-220L-621-211L-614-214Q-614-204-579-182Q-550-144-485-108L-463-82L-466-82Q-483-98-492-98L-495-92Q-495-87-476-72L-469-72Q-462-72-457-75Q-417-48-376-14Q-310 29-238 108L-199 146Q-140 228-96 275Q-91 287-67 304Q-67 341-19 381Q10 435 55 507Q111 618 129 642L257 841Q257 849 299 896L296 902L296 905Q325 920 357 954Q372 965 402 1008Q438 1018 476 1018M-434-43Q-428-44-428-50L-450-63L-453-63L-453-59Q-453-55-434-43M-521-108L-518-108L-518-114Q-518-119-527-124L-531-124L-531-117Q-531-113-521-108M-682-355L-682-362L-662-362L-662-355Q-669-358-672-358Q-678-355-682-355M-695-381L-695-387L-675-391L-659-378Q-675-378-675-371Q-690-381-695-381M-695-394L-698-400L-695-400Q-688-397-685-397L-685-394L-695-394M-682-413L-678-413L-678-416Q-678-423-685-423L-688-423L-688-420Q-687-413-682-413Z"  horiz-adv-x="840" vert-adv-y="2048"  />

      
      <glyph glyph-name="uni51" unicode="&#x51;" d="M801 921Q851 921 851 864Q857 863 857 858Q847 833 847 827Q854 826 854 821L854 817L838 817Q830 817 819 783L822 777Q817 774 807 774Q807 767 816 767L816 758L807 758Q786 758 688 717Q569 668 497 611Q452 563 434 526Q414 511 403 464Q410 456 456 448L462 451Q466 451 466 448Q593 448 738 529Q820 615 882 689Q913 722 913 745Q936 758 941 758Q956 754 973 733L973 714Q991 714 991 692L988 677Q993 677 998 667L998 655Q998 648 995 642Q1010 610 1010 601L1010 586Q997 544 810 345L716 232Q696 193 575 63Q570 63 544 25L547 25Q601 52 672 94Q681 94 794 151Q974 223 1195 270Q1382 307 1583 326L1583 323L1589 326Q1686 329 1743 329L1746 329Q1759 329 1771 332Q1783 329 1796 329Q1987 329 2115 304L2122 307Q2156 299 2156 295Q2153 295 2153 291L2122 295L2109 295Q2102 295 2097 291L2068 298Q2062 295 2059 295Q2037 301 2021 301L2015 301Q2008 295 1987 291Q1931 297 1931 301L1924 298L1921 298Q1918 298 1918 301L1912 298L1909 298L1909 307L1902 307Q1898 307 1893 298L1899 295L1902 295L1909 298L1909 291L1924 291Q1931 291 1937 288L1943 291L1971 282L1971 276L1956 279Q1951 266 1946 266Q1851 270 1824 270L1812 266Q1799 269 1799 273L1793 270L1783 270Q1770 270 1749 266Q1743 270 1740 270L1733 266L1727 270L1721 266Q1718 266 1718 270L1661 263L1661 266L1655 263L1624 263L1624 257L1636 257Q1643 257 1649 260L1655 257L1661 260L1668 257Q1674 260 1677 260L1677 257Q1677 251 1671 251L1668 251Q1665 251 1665 254Q1661 251 1639 251L1639 248Q1645 248 1649 241Q1676 238 1680 238L1683 254L1686 254Q1693 253 1693 248L1686 238L1686 235L1699 235L1699 232L1696 226L1702 226L1702 219L1699 219Q1683 219 1652 216Q1640 219 1630 219Q1630 226 1661 229Q1667 226 1674 226Q1674 230 1661 235Q1656 232 1649 232Q1637 248 1627 254L1621 251L1614 254L1618 260L1618 263Q1608 263 1593 257Q1586 260 1583 260Q1566 257 1558 257L1561 251L1555 248L1552 248L1552 251L1555 257L1552 257Q1502 257 1442 245L1442 248Q1409 238 1389 238L1389 235L1405 235L1405 229L1392 229Q1395 216 1411 216Q1422 216 1436 232L1436 235Q1423 229 1417 229L1417 232Q1417 238 1445 241L1445 238Q1442 232 1442 229L1445 229Q1463 232 1470 232Q1474 232 1480 229Q1492 232 1502 232Q1508 229 1511 229L1511 238Q1531 232 1539 232L1549 232Q1564 240 1564 254L1574 254L1596 251L1593 245L1599 241L1605 241L1605 248L1611 248L1614 232Q1608 229 1605 229L1605 226L1608 219Q1558 209 1546 204Q1527 204 1467 219L1467 223Q1470 223 1470 226L1467 226Q1450 226 1439 213L1433 216Q1433 207 1427 207L1392 207L1392 201L1395 201L1402 204Q1408 201 1411 201Q1417 204 1420 204L1420 201Q1420 194 1383 191L1383 188Q1408 188 1408 182L1408 179L1386 179L1377 173L1367 173L1351 182Q1340 179 1323 179L1323 176Q1336 176 1336 169L1330 166L1326 166Q1319 166 1317 179L1314 179Q1311 179 1311 176L1305 179L1301 179Q1296 172 1236 163L1236 160Q1245 160 1245 154Q1239 153 1239 147L1233 151Q1228 151 1223 141L1217 144Q1190 143 1167 126L1161 126L1154 129Q1154 122 1148 122Q1148 126 1145 126Q1145 121 1107 107Q1107 104 1101 104L1104 97Q1147 104 1192 116L1195 110L991 41L985 41Q978 47 973 47Q915 27 907 13Q879-8 838-18Q807-45 766-59Q617-136 547-178L531-175Q528-189 472-222Q472-228 466-228L456-228Q459-234 459-238Q454-238 381-297Q306-351 253-410Q253-416 234-416Q234-412 203-388Q171-338 159-331Q159-325 143-306L140-288L159-231Q174-191 240-84Q332 45 390 113Q390 120 437 169Q499 250 553 307L556 307L556 313Q552 313 525 317Q523 306 506 298Q485 298 450 304L444 301Q395 315 350 363Q334 404 318 426Q318 434 309 448Q309 451 312 451L290 514L290 573Q336 695 362 717Q362 740 466 814Q641 912 703 914Q703 918 707 918Q713 918 713 914L801 921M1661 310L1661 307L1674 307L1674 310L1661 310M1962 307Q1962 301 1971 301L1984 301L1984 304L1962 307M1987 285L2009 279L2009 273Q1981 276 1981 282L1987 285M1971 273L1981 273L1981 266L1971 266L1971 273M1602 257L1605 257L1605 251L1596 251Q1597 257 1602 257M1571 245L1567 238Q1574 235 1577 235Q1583 238 1586 238L1586 248L1580 245L1571 245M1458 245L1464 245L1464 238L1452 238Q1453 245 1458 245M1364 235Q1365 229 1370 229L1367 223L1367 219Q1384 216 1386 216L1386 226L1373 226L1373 229L1380 238L1377 238Q1371 235 1364 235M1308 226L1308 219Q1311 219 1311 216Q1304 216 1292 207L1286 210Q1280 207 1273 207Q1270 207 1270 210Q1260 204 1254 204Q1254 210 1248 210L1236 210L1236 207Q1245 207 1254 194L1258 194L1258 201L1273 201Q1280 201 1286 198Q1304 200 1314 213L1317 213L1323 210L1323 213Q1311 221 1311 226L1308 226M1583 226L1583 223L1596 223L1596 226L1583 226M1333 219L1333 216L1355 216Q1361 216 1361 223L1355 223L1333 219M1505 219L1508 213Q1514 216 1517 216L1517 219L1505 219M1455 216L1461 216Q1467 215 1467 210Q1467 204 1461 204Q1455 204 1455 210L1455 216M1186 201L1186 198L1198 198L1198 201L1186 201M1214 198Q1215 191 1220 191Q1226 191 1226 198L1214 198M1236 191L1236 188Q1239 188 1245 185L1245 191L1236 191M1455 194L1464 194L1464 188Q1459 188 1449 182L1445 188L1455 194M1157 179L1161 179Q1173 183 1173 188L1170 188Q1157 183 1157 179M1427 185L1430 179L1423 176L1420 176L1420 179Q1421 185 1427 185M1104 173L1104 169L1114 169L1129 173L1129 179Q1106 173 1104 173M1070 163L1070 160L1082 160L1082 163L1070 163M1489 166L1499 166L1499 160L1489 160L1489 166M1004 144L1004 141L1007 141L1057 154Q1057 160 1051 160Q1010 144 1004 144M1201 154L1201 151L1211 151Q1217 154 1220 154L1220 157L1217 157Q1212 154 1201 154M1186 151L1186 144Q1191 147 1198 147L1198 151L1186 151M1117 129L1126 129L1126 135L1123 135Q1117 134 1117 129M1292 138L1301 138L1301 132L1286 132Q1287 138 1292 138M1267 132L1286 132Q1286 126 1279 126Q1276 126 1276 129L1270 126L1267 126L1267 132M1245 129L1254 129L1254 122L1245 122L1245 129M1101 119L1101 113L1110 113L1110 119L1101 119M1204 119L1214 119L1214 113L1204 113L1204 119M1045 104L1045 97L1060 101L1060 107Q1055 104 1045 104M1051 91L1051 88L1060 88Q1066 91 1070 91Q1070 88 1073 88L1073 94L1067 94L1051 91M1026 79L1017 79L1013 72L1017 72L1048 82L1048 85L1035 85L1026 79M810 75L810 72L816 72Q822 75 826 75L826 79L822 79Q817 75 810 75M919 47Q914 50 907 50L910 44L910 41Q903 41 898 38Q894 38 894 41Q860 36 860 29L860 25L863 25Q903 25 976 60L976 63Q976 69 970 69Q960 60 926 54Q926 47 919 47M844 32L841 25L851 25Q851 32 844 32Z"  horiz-adv-x="1034" vert-adv-y="2048"  />

      
      <glyph glyph-name="uni52" unicode="&#x52;" d="M713 1129L734 1105L734 1098Q707 1057 675 1045L668 1035L671 1035Q694 1052 703 1052L703 1049Q703 1044 668 1021Q671 1014 671 1010Q666 1010 661 1000L678 1003L685 1003L685 1000Q681 1000 640 951Q615 951 591 902L549 863L545 863L545 860L549 853Q399 751 332 576Q317 556 276 454Q262 454 227 321Q230 314 230 310Q219 272 213 272Q205 272 199 275L185 268Q173 275 167 275L143 272Q129 277 129 282Q122 279 118 279L76 282Q69 279 66 279L38 300L34 317Q45 360 55 510Q59 510 62 534Q62 538 59 538Q76 661 76 699Q76 702 80 702Q80 706 76 706Q87 761 90 891L87 898Q90 923 94 923Q87 936 87 961L87 965Q87 972 90 979Q87 985 87 993L87 1000Q87 1009 132 1024L150 1024Q161 1014 192 1010Q192 1003 195 1003Q202 1007 206 1007Q206 1002 265 982Q274 973 279 923Q279 919 276 919L279 884L279 856Q444 1001 713 1129M556 863L559 863L559 856L549 856Q550 863 556 863Z"  horiz-adv-x="524" vert-adv-y="2048"  />

      
      <glyph glyph-name="uni53" unicode="&#x53;" d="M327 1022Q383 1010 383 976Q393 963 393 949Q393 934 386 921L390 904Q390 898 369 873Q372 866 372 859Q365 858 365 852L365 848Q383 848 383 841Q327 817 324 817Q297 791 230 751Q201 721 178 692L178 689Q189 689 258 661L293 661Q296 661 296 658L303 661Q383 651 462 578Q501 543 511 485Q528 398 535 381Q535 284 348 225Q169 156 88 135Q81 127-9 97Q-91 62-123 62Q-128 62-137 79Q-117 111-43 142Q27 181 40 201Q50 216 102 228L116 225Q116 242 171 266Q206 275 206 284L199 287L185 277L175 277L175 284Q175 290 206 304L202 311L202 315L237 325L237 329L230 329L230 332Q230 336 254 350Q251 356 251 360Q255 365 355 412Q378 440 400 440L400 443Q400 460 234 488L227 485Q149 485 102 537Q71 582 71 630Q64 630 47 748L47 755Q47 767 50 786Q47 792 47 800Q54 800 64 838Q73 838 81 869Q164 962 216 980L327 1022Z"  horiz-adv-x="574" vert-adv-y="2048"  />

      
      <glyph glyph-name="uni54" unicode="&#x54;" d="M479 1718Q482 1713 482 1707L487 1710L487 1707Q482 1696 482 1687L484 1687L498 1696L501 1690Q462 1590 462 1581L459 1581L462 1576L434 1511L442 1511Q445 1531 454 1531Q454 1527 462 1522Q465 1528 465 1531L468 1531Q473 1530 473 1525Q461 1503 456 1503L456 1500Q462 1493 462 1489L465 1489Q469 1489 476 1506L476 1520Q480 1520 487 1534L484 1539L507 1595Q507 1600 496 1606Q491 1606 484 1595Q488 1595 498 1581Q479 1555 473 1545L468 1545L468 1550L462 1550Q462 1534 456 1534Q451 1534 451 1539Q461 1555 468 1581Q493 1645 493 1648L501 1654L504 1654Q501 1642 501 1634Q510 1634 510 1623L504 1620L507 1604L512 1604Q513 1618 532 1637Q532 1634 535 1634Q531 1623 521 1618Q521 1615 524 1615Q515 1571 504 1539L510 1536Q520 1576 532 1584Q532 1581 535 1581Q532 1550 526 1542L535 1542Q535 1539 532 1539L535 1525Q493 1404 448 1259Q470 1259 470 1257L476 1259Q533 1259 582 1265Q588 1262 591 1262Q595 1267 658 1271Q663 1268 666 1268Q671 1271 678 1271Q678 1265 683 1265Q684 1271 689 1271L714 1271L728 1273Q728 1271 731 1271Q731 1275 781 1282L781 1279L851 1290Q856 1287 862 1287Q863 1293 868 1293L871 1293Q877 1293 882 1290Q887 1293 893 1293L899 1290Q899 1294 907 1299Q912 1296 915 1296Q916 1301 921 1301L929 1301L927 1296L935 1296Q935 1304 994 1313Q999 1310 1005 1310Q1014 1310 1030 1321Q1030 1315 1038 1315Q1046 1315 1058 1324Q1064 1324 1069 1321Q1075 1324 1078 1324L1083 1321Q1107 1334 1139 1340Q1139 1343 1145 1343Q1146 1338 1150 1338Q1159 1338 1187 1349Q1192 1346 1198 1346L1204 1346L1204 1349Q1201 1354 1201 1357L1204 1357Q1210 1357 1215 1354L1313 1380L1316 1380L1313 1385L1313 1388Q1318 1387 1318 1382L1324 1385L1330 1382Q1391 1402 1455 1416L1464 1416L1464 1424L1475 1424Q1503 1429 1503 1436L1511 1430Q1526 1438 1556 1447L1556 1450L1570 1447Q1617 1464 1643 1466Q1643 1469 1649 1469L1654 1466L1682 1478L1688 1478L1696 1472L1699 1472L1696 1478Q1711 1483 1724 1492L1732 1492Q1732 1496 1741 1500Q1741 1496 1749 1492Q1749 1497 1758 1497L1772 1494Q1772 1500 1777 1500Q1783 1497 1786 1497L1800 1508L1802 1508L1800 1503L1800 1500L1802 1500Q1849 1515 1864 1525L1878 1522Q1879 1528 1884 1528L1889 1525L1892 1525L1892 1528L1886 1528L1886 1534L1906 1531L1909 1531L1906 1536L1906 1539L1931 1548L1931 1545L1928 1539L1942 1539Q1951 1547 2012 1559Q2013 1563 2085 1581Q2086 1587 2091 1587L2096 1584Q2110 1590 2203 1612Q2203 1615 2205 1615L2228 1615L2242 1612L2242 1623Q2246 1623 2275 1632L2286 1632L2286 1629L2284 1623L2286 1623Q2321 1634 2331 1634L2331 1632Q2328 1624 2228 1601L2026 1545L2026 1539L2029 1539Q2055 1548 2060 1548L2060 1545L2071 1550Q2076 1548 2079 1548Q2093 1555 2093 1559L2107 1556Q2121 1567 2127 1567L2141 1564Q2142 1570 2147 1570L2152 1567Q2152 1576 2189 1581L2194 1581L2194 1573L2203 1573L2200 1587L2217 1587L2233 1598L2236 1598L2242 1595Q2243 1601 2247 1601L2250 1601Q2250 1594 2256 1587L2247 1576Q2250 1576 2250 1573L2247 1573Q2242 1573 2242 1581Q2236 1580 2236 1576Q2242 1573 2245 1573Q2245 1563 2205 1562Q2208 1567 2208 1570L2205 1570Q2201 1567 2189 1567Q2189 1562 2197 1562L2197 1556L2183 1553L2180 1559Q2180 1562 2183 1562L2180 1567L2180 1570L2189 1570L2189 1573Q2186 1573 2180 1576Q2172 1570 2161 1570L2161 1564Q2167 1564 2177 1556L2180 1556L2175 1548Q2177 1542 2177 1539Q2145 1531 2135 1525Q2130 1525 2130 1531Q2172 1544 2172 1548L2161 1548L2161 1553L2166 1553L2166 1559L2163 1559Q2145 1539 2124 1539Q2121 1545 2121 1548L2119 1548L2110 1542L2105 1545L2102 1539L2110 1539L2110 1534Q2060 1519 2060 1514L2063 1514L2082 1517L2082 1514Q2082 1509 2037 1497Q2037 1494 2032 1494Q2023 1494 2023 1506L2018 1506Q2006 1486 1995 1486L1995 1489Q1984 1483 1976 1483L1976 1489Q1997 1494 2001 1494L1998 1500Q1844 1458 1842 1452Q1907 1466 1965 1486Q1965 1483 1990 1469Q1980 1464 1956 1458L1956 1461L1951 1458L1940 1458Q1944 1468 1976 1469Q1976 1475 1970 1475L1956 1475Q1930 1466 1923 1466L1917 1466Q1917 1457 1872 1450Q1872 1444 1856 1444L1858 1438Q1871 1444 1895 1444L1900 1444Q1900 1455 1917 1455L1931 1455L1931 1450L1926 1450Q1917 1450 1892 1438Q1870 1438 1822 1416Q1794 1416 1794 1408Q1789 1410 1786 1410L1774 1405Q1774 1410 1769 1410Q1769 1400 1738 1396L1732 1399L1730 1399L1730 1396L1735 1396Q1735 1391 1730 1391L1716 1394Q1715 1390 1688 1377Q1688 1380 1685 1380Q1682 1374 1682 1371L1679 1371Q1679 1377 1676 1377L1671 1374L1665 1377Q1662 1377 1651 1363Q1651 1368 1646 1368L1637 1368Q1626 1360 1587 1352Q1584 1363 1576 1363Q1570 1360 1567 1360L1567 1357Q1579 1357 1579 1352Q1562 1345 1562 1340L1565 1340L1562 1335L1562 1332Q1662 1357 1721 1380Q1724 1380 1724 1377Q1746 1388 1755 1388L1760 1385Q1760 1391 1856 1416Q2184 1511 2236 1522L2236 1517L1912 1424Q1872 1413 1867 1408Q1854 1408 1730 1371Q1721 1366 1623 1340Q1619 1340 1595 1327Q1590 1329 1587 1329Q1584 1324 1584 1321L1570 1324L1567 1324L1567 1321L1573 1321L1573 1315Q1503 1302 1495 1290Q1489 1293 1486 1293Q1475 1283 1391 1262Q1391 1259 1388 1259Q1383 1262 1380 1262L1377 1257L1363 1259Q1354 1259 1344 1248Q1338 1251 1335 1251L1332 1245L1327 1248L1321 1248Q1321 1240 1316 1240L1310 1240L1296 1243Q1296 1237 1282 1231L1265 1234Q1228 1209 941 1156Q871 1142 759 1128L759 1131Q596 1105 417 1105L412 1105Q402 1095 356 907Q221 482 140 314Q133 289 104 266L98 266Q70 266 70 272L65 269L62 269L12 288Q9 288 3 286Q-17 286-36 314Q31 455 62 543L112 675Q112 682 143 761Q182 878 224 1044Q229 1044 247 1108Q112 1131 68 1164Q54 1164-8 1220L-8 1229L-2 1229L-2 1234Q-16 1255-19 1287Q-22 1287-22 1290L-19 1296Q-22 1301-22 1307L-19 1307L-22 1313L-22 1315Q-19 1357-5 1357L126 1296L210 1273L216 1276Q232 1271 286 1262Q300 1298 314 1352Q333 1429 361 1500Q365 1522 375 1522Q375 1525 373 1525Q373 1552 395 1573L392 1578Q411 1592 417 1592Q417 1601 415 1601Q415 1607 423 1634L437 1634Q455 1691 479 1718M504 1671L510 1671L510 1662L498 1662L498 1665Q499 1671 504 1671M2368 1657L2368 1651Q2348 1646 2345 1646L2342 1651Q2355 1657 2368 1657M2382 1648L2390 1648L2390 1643L2376 1643Q2377 1648 2382 1648M2373 1643Q2373 1636 2340 1632L2337 1637Q2365 1643 2373 1643M2412 1640L2418 1640Q2418 1633 2393 1632L2393 1637L2412 1640M2250 1618L2250 1615L2253 1615Q2275 1618 2275 1623L2272 1623Q2270 1623 2250 1618M2359 1626L2359 1620L2354 1623Q2354 1618 2348 1618L2345 1618Q2340 1618 2340 1623L2359 1626M2340 1620L2334 1612Q2337 1607 2337 1604L2334 1604L2326 1609L2317 1609L2320 1604L2320 1601L2314 1601Q2310 1601 2306 1609Q2312 1615 2340 1620M2298 1612L2303 1598L2295 1592L2292 1592Q2286 1592 2286 1598L2298 1598L2298 1601L2286 1601Q2286 1595 2281 1595Q2275 1595 2275 1601Q2275 1606 2298 1612M2256 1601L2270 1601Q2270 1590 2275 1590L2298 1590L2298 1587Q2298 1581 2272 1578L2272 1581L2275 1587Q2260 1587 2256 1598L2256 1601M2242 1592L2239 1587L2239 1584Q2244 1587 2250 1587L2250 1590Q2247 1590 2242 1592M482 1590L479 1576Q483 1576 490 1587L484 1590L482 1590M2211 1581L2211 1576Q2217 1576 2217 1570L2225 1570Q2231 1570 2231 1576Q2225 1576 2225 1581L2233 1581L2233 1587Q2225 1581 2211 1581M2270 1573L2275 1573L2275 1567L2264 1567Q2265 1573 2270 1573M473 1567Q473 1563 468 1556L468 1553Q472 1553 479 1564L473 1567M2085 1545Q2088 1545 2093 1542L2096 1542L2096 1545Q2091 1545 2091 1550Q2085 1549 2085 1545M1942 1550L1945 1550L1945 1548Q1945 1542 1940 1542L1937 1548L1942 1550M2009 1539Q2012 1534 2012 1528L2015 1528Q2015 1533 2023 1542L2018 1542Q2012 1539 2009 1539M2074 1542L2077 1536Q2082 1539 2085 1539L2085 1542L2074 1542M2091 1534L2093 1534Q2099 1534 2099 1539L2096 1539Q2091 1538 2091 1534M2214 1542L2222 1542L2222 1536L2214 1536L2214 1542M493 1506Q501 1506 507 1534L504 1534Q496 1534 493 1506M1967 1522L2001 1531L2001 1534L1998 1534Q1967 1530 1967 1522M2060 1525L2065 1525Q2071 1528 2074 1528L2074 1531L2065 1531Q2060 1530 2060 1525M2194 1534L2197 1528L2189 1522L2169 1522Q2169 1527 2194 1534M2113 1528L2124 1528Q2124 1522 2119 1522L2113 1522L2113 1528M1942 1520L1942 1514L1945 1514L1951 1517Q1956 1514 1962 1514L1965 1514Q1965 1518 1954 1522Q1954 1520 1951 1520L1951 1522Q1945 1520 1942 1520M2144 1522L2147 1522Q2152 1522 2152 1517L2152 1514L2144 1514L2144 1522M1769 1469L1769 1466L1777 1466Q1787 1472 1814 1478Q1814 1474 1822 1469L1825 1469Q1819 1476 1819 1478Q1828 1483 1836 1483L1850 1480L1847 1486L1934 1511L1934 1517L1769 1469M2116 1514L2127 1514Q2127 1508 2121 1508L2116 1508L2116 1514M1965 1508L1965 1503Q1974 1503 1979 1500L1979 1506L1965 1508M364 1494L364 1480L367 1480L370 1494L364 1494M1931 1494Q1932 1489 1937 1489L1940 1489Q1940 1494 1934 1494L1931 1494M1752 1492L1752 1489L1763 1489L1763 1492L1752 1492M2040 1492L2049 1492Q2049 1486 2043 1486L2040 1486L2040 1492M459 1480L459 1475Q465 1478 468 1478L468 1486L465 1486Q459 1485 459 1480M426 1483L426 1475Q431 1475 431 1480L431 1483L426 1483M2026 1486L2026 1480L2012 1478Q2012 1484 2026 1486M1993 1478L2007 1478L2007 1472Q1997 1469 1995 1469L1993 1475L1993 1478M1721 1455L1721 1452L1727 1452Q1732 1452 1744 1458Q1749 1455 1752 1455L1755 1461L1749 1461Q1742 1461 1721 1455M1632 1458L1632 1455L1643 1455L1643 1458L1632 1458M1688 1441L1696 1441L1704 1447Q1710 1444 1713 1444L1716 1450Q1710 1450 1710 1452Q1688 1446 1688 1441M1802 1438L1805 1438Q1811 1438 1811 1444L1808 1444Q1802 1443 1802 1438M1839 1438Q1839 1441 1836 1441Q1836 1436 1777 1422L1777 1416L1786 1416Q1793 1421 1853 1438L1853 1444L1847 1444L1839 1438M1707 1413L1716 1413L1716 1419L1713 1419Q1707 1418 1707 1413M1738 1413L1738 1408L1766 1410L1766 1413Q1763 1413 1758 1416Q1747 1413 1738 1413M431 1410L431 1402L440 1402L440 1410L431 1410M1665 1391L1665 1388L1671 1388Q1681 1388 1732 1405L1732 1408L1724 1408Q1708 1399 1665 1391M1660 1399L1665 1399Q1671 1402 1674 1402L1674 1405L1665 1405Q1660 1404 1660 1399M1595 1382L1595 1377L1615 1380L1612 1385L1595 1382M1581 1380L1581 1377L1593 1377L1590 1382Q1584 1380 1581 1380M1640 1377L1646 1377Q1651 1377 1651 1382L1646 1382Q1640 1382 1640 1377M1607 1374L1607 1368Q1616 1368 1621 1366Q1621 1374 1637 1374L1637 1380L1635 1380Q1615 1374 1607 1374M1542 1368L1542 1366L1553 1366Q1559 1366 1559 1371Q1556 1371 1556 1374Q1547 1368 1542 1368M1587 1366L1587 1363Q1593 1363 1598 1366L1604 1363L1607 1363L1607 1366Q1598 1366 1598 1374Q1587 1370 1587 1366M1503 1343L1503 1340L1506 1340L1542 1349Q1548 1346 1551 1346L1551 1343Q1551 1338 1545 1338Q1539 1338 1534 1340L1517 1332L1511 1335Q1511 1331 1497 1324L1492 1324L1486 1327Q1486 1321 1472 1321L1475 1315L1469 1313Q1469 1318 1464 1318Q1458 1315 1455 1315Q1461 1308 1461 1304L1467 1304L1464 1310L1464 1313L1478 1310Q1483 1310 1483 1315L1489 1313L1495 1313L1492 1318L1497 1321Q1498 1315 1503 1315L1509 1315L1506 1321L1511 1324L1511 1318Q1547 1325 1559 1338L1556 1343L1565 1357L1551 1357L1551 1349L1548 1349L1548 1357L1503 1343M1455 1327L1467 1327Q1472 1327 1472 1332L1461 1332Q1455 1331 1455 1327M1383 1310L1383 1307L1394 1307L1394 1313L1391 1313Q1386 1310 1383 1310M1447 1310L1447 1307Q1448 1301 1453 1301L1455 1301L1455 1310L1447 1310M1425 1307Q1425 1301 1422 1296L1430 1296L1430 1301L1436 1299L1444 1299L1444 1301Q1444 1307 1439 1307L1425 1307M1411 1301Q1411 1296 1405 1296Q1406 1290 1411 1290L1416 1290L1416 1293L1413 1299Q1416 1299 1416 1301L1411 1301M1316 1276L1318 1271Q1313 1268 1310 1268Q1311 1262 1316 1262Q1346 1274 1355 1282Q1362 1282 1371 1276L1374 1282Q1371 1282 1371 1285L1385 1282L1402 1287Q1402 1293 1397 1293L1394 1293L1385 1287Q1385 1293 1383 1293Q1377 1290 1374 1290L1374 1293Q1330 1276 1316 1276M1279 1262Q1280 1257 1285 1257Q1305 1257 1307 1265L1293 1268L1293 1262L1290 1262L1290 1268L1285 1268Q1279 1267 1279 1262M1257 1259L1257 1257L1274 1254Q1274 1258 1265 1262Q1260 1259 1257 1259Z"  horiz-adv-x="358" vert-adv-y="2048"  />

      
      <glyph glyph-name="uni55" unicode="&#x55;" d="M792 1175L795 1169L786 1147L786 1144L789 1144L789 1150L795 1150L795 1144L761 1080L761 1077L764 1077Q793 1132 807 1144L807 1138Q768 1071 727 991L727 988L730 988Q732 1000 740 1000L743 1000L743 994L736 985L736 979L749 994L755 991Q755 995 764 1000L764 997Q764 988 755 973Q758 967 758 960L755 960L749 963L746 957Q755 957 755 951Q738 944 736 933Q743 932 743 927L743 924Q743 917 706 884L706 881L712 884Q718 883 718 878Q713 878 697 838Q684 823 675 779L663 758L666 758L672 761Q672 758 675 758L638 681Q625 663 620 663L623 657Q623 641 598 620L601 614L568 549L559 549L562 534Q524 509 522 482Q522 472 457 387Q460 387 476 399L476 396Q438 352 390 313Q390 298 347 282Q315 261 286 261Q224 261 111 332Q31 418 31 537Q31 665 92 828Q127 890 141 890Q154 890 154 899L206 884Q230 862 230 838Q209 805 209 792L212 792Q206 693 200 660Q207 660 212 657Q199 593 194 586L197 580L197 562L190 562L190 589L187 589Q187 578 181 546L187 546L187 552L194 552L194 549Q181 540 181 534L181 525L184 525L184 537L190 537L190 491Q190 484 194 479L190 473Q194 467 194 463Q190 463 190 460Q195 460 209 396Q221 379 221 368L233 368Q293 403 378 516L457 647L632 976Q731 1156 749 1160Q749 1157 752 1157L749 1150L749 1147L767 1163Q772 1160 779 1160Q779 1169 792 1175M733 1132L733 1123L736 1123Q741 1123 746 1132L746 1141L743 1141Q738 1141 733 1132M724 1114L724 1104Q729 1104 733 1114L733 1117Q727 1114 724 1114M694 911Q694 904 690 899L694 899L697 905L697 911L694 911M218 712L224 712L224 709L215 666L209 666Q209 676 218 712M194 626L190 620L190 605L194 605Q194 613 200 623L194 626M598 592L601 592Q592 574 592 571L586 571L586 577Q594 592 598 592M577 562L583 562L583 555Q583 549 577 549L574 549Q577 555 577 562M442 371L445 371Q451 371 451 378L451 381Q447 381 442 371M433 365Q433 359 427 359L427 356L433 356L439 365L433 365Z"  horiz-adv-x="647" vert-adv-y="2048"  />

      
      <glyph glyph-name="uni56" unicode="&#x56;" d="M754 1225L757 1225L757 1216L754 1209Q760 1208 760 1202L742 1170L742 1166L745 1166Q745 1176 763 1189L763 1186Q762 1180 733 1137L733 1133Q760 1150 760 1160L763 1160L763 1156Q763 1139 739 1120L733 1124L729 1117L729 1114L739 1114L736 1107Q740 1107 745 1097L745 1094L729 1068L729 1064L736 1064L736 1061Q736 1056 726 1051Q726 1058 720 1058L714 1038L717 1038L729 1048L733 1048Q733 1043 720 1035L723 1028Q723 1023 699 1005Q714 1004 714 995Q692 954 674 946Q662 930 656 930L656 923L662 923L662 930Q668 930 668 920L671 920L708 969L711 969Q686 918 613 821L610 821L610 824L623 847L620 847L583 815Q581 805 568 788L574 785L577 785L604 815L607 808Q555 725 546 690Q543 690 507 627Q451 572 406 496Q382 454 357 394Q305 287 299 279L278 259Q274 259 274 262L268 259Q252 271 201 282Q201 286 177 295L171 292Q119 305 119 348Q100 435 70 647Q52 714 21 877L18 877Q18 916 52 916Q104 916 171 861Q182 861 195 841Q195 838 192 838Q201 812 250 581L247 581Q253 561 253 555L256 555L461 864Q461 866 558 1008Q558 1014 638 1120Q638 1133 699 1202Q708 1202 729 1209L736 1206Q736 1209 754 1225M714 1114L714 1107L720 1107Q720 1115 726 1124L726 1127Q722 1127 714 1114M693 979L690 972L690 969L693 969Q693 973 696 979L693 979Z"  horiz-adv-x="633" vert-adv-y="2048"  />

      
      </font>
</defs>
</svg>
